<mxfile host="app.diagrams.net" agent="Mozilla/5.0 (Macintosh; Intel Mac OS X 10_15_7) AppleWebKit/537.36 (KHTML, like Gecko) Chrome/129.0.0.0 Safari/537.36" version="24.7.17">
  <diagram name="Page-1" id="Ce8mvNCf3leXUMQClNuV">
    <mxGraphModel dx="1750" dy="-3" grid="1" gridSize="10" guides="1" tooltips="1" connect="1" arrows="1" fold="1" page="1" pageScale="1" pageWidth="850" pageHeight="1100" math="0" shadow="0">
      <root>
        <mxCell id="0" />
        <mxCell id="1" parent="0" />
        <mxCell id="B7J31swfIntdvlFsxO-T-1" value="" style="shape=image;verticalLabelPosition=bottom;labelBackgroundColor=default;verticalAlign=top;aspect=fixed;imageAspect=0;image=data:image/png,iVBORw0KGgoAAAANSUhEUgAAC2kAAAMrCAMAAABeBcu2AAAB3VBMVEUAAAAgIDAgIDAjIzAlJTAkJDAlJzAlJjAmJzAmJzAmJzAgKDCvQEC9QEK9QES9QEO+QEO8QEMmJzAlJzC3QEC9QEO9QEO9QEO/QEO9QEImKDAlJTC/QES/QEIjJjAmJjAnJzAmJjAlJjC7QEAmJjC9QEO/QEAhITEoKDAnJzC/QEIkKDAmJzAlKDAlJzAmJjAmJzAlKjAmJjAmKDAnJzAmKDD/QED/S0v/S0v/S0v/Skr/SEh8NDh9NTt9Njp9NTv/S0v/S0v/S0v/Skp9NTt4MDj/S0v/SEh9NTtwMED/Skp9NTt+Njq+QER+Njp9NTu7QEJ9NDt8Mzm6QEV7NDn/Skp+NTl8NDp9NTp9NTr/TEx6NTX/S0t9Njv/UFCAODh/NTt8NDwkJzB8NTslJTD/TEz/RUX/SkomJjB6MDr/TEwnJzB9Njr/SkomJjB8NTonJzAnJzD/SUn/SUnNQkS3QEPmR0jFQUSNOD3eRUe1P0KBNjz3SkqhOz/WREbvSEnNQkXiRkfBQUSoPECROT65P0KpPED7SkqBNjytPUGZOT7JQUSFNjzqR0iJNzz/SUmxPkKdOj+fOz/aREbzSUnSREWHODq9QEK/QED/TEzVQ0b/S0v/TEz/Skr/UFBHc0nNAAAAn3RSTlMAECBQYECPz//fryAQYI+vv1DvvyCf7/9vcJ8wf39Qf3CAn0Cf3xAfII+PQM9gkKCwMM+gb4AQcJ+/ryBAj6+/j//PYP8g30DfEH+fgM9/74DvUDBwgG+AYN9AMO/fECCPQHDPkFAwkFAwr5CwMF+Q369QcI+f/////////////////+//////7////////6D//+////9g3yCQ36CA3yBmZktGAAA/10lEQVR4AezdB3qbShiG0R8LpMHd4LjbKuk92f/ibr+kW8KNsXLOKr5neJkJAAAAAAAAAAAAAAAAAAAAAAAAAAAAAAAAAAAAAAAAAAAAAAAAAAAAAAAAAAAAAAAAAAAAAAAAAAAAAAAAAAAAAAAAAAAAAAAAAAAAAAAAAAAAAAAAAAAAAAAAAAAAAAAAAAAAAAAAAAAAAAAAAAAAAAAAAAAAAAAAAAAAAAAAAAAAAAAAAAAAAAAAAAAAAAAAAAAAAAAAAAAAAAAAAAAAAAAAAAAAAAAAAAAAAAAAAAAAAAAAAAAAAAAAAAAAAAAAAADoCQAAAAAAAAAAAAAAAAAAAAAAAAAAAAAAAAAAAAAAAAAAAAAAAAAAAAAAAAAAAAAAAAAAAAAAAAAAAAAAAAAAAAAAAAAAAAAAAAAAAAAAAAAAAAAAAAAAAAAAAAAAAAAAAAAAAAAAAAAAAAAAAAAAAAAAAAAAAAAAAAAAAAAAAAAAAAAAAAAAAAAAAAAAAAAAAAAAAAAAAAAAAAAAAAAAAAAAAAAAAAAAAAAAAAAAAAAAAAAAAAAAAAAAAAAAAAAAAAAAAAAAAAAAAAAAAAAAAAAAAAAAAAAAAAAAAAAAAAAAAAAAAAAAAAAAAAAAAAAAAAAAAAAAAAAAAAAAAAAAAAAAAAAAAAAAAAAAAAAAAAAAAAAAAAAAAAAAAAAAAAAAAAAAAAAAAAAAAAAAAAAAAAAAAAAAAAAAAAAAAAAAAAAAAAAAAAAAAAAAAAAAAAAAAAAAAAAAAAAAAAAAAAAAAAAAAAAAAAAAAAAAAAAAAAAAAAAAAAAAAAAAAAAAAAAAAAAAAAAAAAAAAAAAAAAAAAAAAAAAAAAAAAAAAAAAAAAAAAAAAAAAAAAAAAAAAAAAAAAAAAAAAAAAAAAAAAAAAAAAAAAAAAAAAAAAAAAAAAAAAAAAAAAAAAAAAAAAAAAAAAAoNkblX0ZVEQAAwJ0oqvEkderNciuA7Gzv7O7t7+0ebMfjAABU4yZ9ry0DyMrhk6Pj/zw5DAAgf1WbfqouA8jHydHxV04DAMhccZZ+qT4PIBMXx9+6DAAga1dNus40gKyGtqndHxvno3I2XyzadlJ3Jm27uRjPy1G1EfcBgGlaYrIVwPAOj3/0NK4FxXk5W7R1WqppN+d3fPEUAM/SUnUGUxt4fvyj5y8CfmFjNNusU09NOx6dxz0BMLTzn9qgHensxo+gqGabTbqxpp3f/nQbgHHq5Dy1gafHHf0I16qmbZNurx1Xsf4AFiso7qfR7kxiSMB2147oR7hGUW426e60a/+GGUBawcu4iVdpZa9jQMCb445+hF8oZm26c5OZsQ3ciKVdp9W9jQyAdkQ/wpKZncXYBrC0p6mHNrIC2hH9SIeiatO9asvoA8DSflWnPsrIB2hHOvoRXk2bdO/qZ1uxMgBLe5p6eRfZAe2IfoSqTQ+kHQWApX0PlXaGpTZoR/QjFO/b9IDqMgAs7VVcpZ4WkRXQjnT2gt9S0WUjtjZAXkv7LPXUBDCAnePlDgI729YGyGdp1ynln48Ah8+PlzvSj/x+3tepY2sD5LW0X6XeZgE8uCfHP9KPUE3SgOrzuAaApV2l3haRAdCO6Ed41aaBXXfnH4ClPUu9vYsMgXZEPyLQHkAzi18BsLTnqbc6gKHbEf0IVZ2yUG8FgKX9cx8e39IG7Yh+hGKcsjENAEv7pz6uydIG7Yh+xIG2Y20A9QhwD+1IZz9Ye+N0E/nX2gD+iGwjQ6Ad6ZwGrhx5aM+KALC0v/c+9fYpMgTakc7RYbDOqiZ1FCQAa/ZyzTyAodoR/QjTlKfmKgAs7e80j+Y1dtCO6EconqVsTQPA0v7WZuqrCGCQdkQ/wqtJytjruGdX8+XeBkA+S/v9AD9Evp0vdxXAt+2IfoRXdcpaW8S9+qhwBB7Z0i6a1E8ZtzZPyy0C+KYd0Y/wuU6Zm2xZ2oClfYtXIusYYmmDdkQ/wucmZa/esrQBS/vmt4+UmS9t0I7oRwztDKa2pQ1Y2v0PtevIfmmDdkQ/YmjnMbUtbcDS7lVqlxksbdCO6EcM7XzVhaUNWNpfXKWVPQtLGx6+HdGP8KpJd6qpO026Y5PC0gYs7S8+PPBHQUubP9m7r+7GjTMO4wOJoGbIxAVwrBwpRyzaQoemjtW2cW0ZMVfr3nvvvX3/qyzcPVsI6CWJeYHnl+JbcakjP8L+Z1ge2xH5fgRc7+fS4WCys9/1UjjqjseTwTB1djE6lPafAFDa0YEtJOkaDaUNsB3x9iMgtJN0b7IfmTmi8c5emlixRyhtAJR26R/iO2b1pQ2wHWE/gtRKJMN+15SwPzl0VqZPaQOgtMuldrJjVl/aANsR9iPo2bNL88oubzTpWIkxpQ2A0v5T1LFzuH2z+tIG2I6wH8HR2Scjk8icWbRzmNizSrqUNgBK+y+O7T2lXUNpQw+2I+xHuHYk7UdGKJqk9ow2KG0AlHbRBUnSN4bSXh3g35u/Yj+CyNkzSPbGC+r8Qyc9FUlpA6C0cxNn72wvMpT2CgEPPbz5K/YjaNvykuPILM7ESafalDYASjs3OZD/xKa0AbEHNn/FfgQTeWdX1NouorQBUNqe/UFq/8IJ/gJSWNoA2xH2Ixg5eWdX1dqPUNoAKO07GO8M9obD4aC/ExkBYWkDbEfYj2DLlnSua5bjWLwfobQBUNoePaUNsB1hP8J2xI3N0owO5fsRShtAqChtNMely1euXrs8ZTvCfkTk+uNPnJw8ft1o5mwp/vH1qickAwWlDQCUNprV2U9mv/rfU2xHzoz9yPWT2a+euGHU6lX9QNszSm0pSVdJaQMApY2GmJ5mfzi9yXaE/Yios3NPq03tkS0jjYyv8rV2R0lpAwCljYY4zf7q2tQ0zH82PexHZJ2dp/YzTTgOeWxWYuxsGWNKG4AClHZj4NnMc6VZrf3QphT7kRvPzTzP1/+RdjIJ897BlNIOFQBKGzzSbl5rn99chhdMczzz4uw2Lz1T90fayb5ZmdGBLWFMaQNQgNJuCNzMctLWZjvie7k5nf3K7A5erfkjbdc1KxR1bHEppQ1AAUq7IXA5u6PTZ6dsR0Rea25n5143Cm2FGdq5Q1vcmNIGoACl3Qx4I7uL06fYjszBfuTNV2Z38ZbRZxRqaOdSW1hKaYcMAKUNnmkXaG22I+xH3n5ndlev1/qR9r5ZuejAFhZR2gAUoLQbAe9mWenWZjvCfsS/2M/3nlEncragvvGFdQPJgNIGoACl3Qx4P7uX05tsR9iPlOvs3AdGn0lg92j7RoktKKG0AwWA0gZDbd/VKdsR9iNlOjv3nNHnwBaTBv+rgB1T2sEBQGk3FD7M5rkyZTvCfsT7oJo5PjLqbId3GtK3ZwtKKe3gAKC0mwpXs+KtzXaE/cgzH8/mOqnxeciWgiV5ElHa4QJAaYMzkfLWZjuSu68hF2j73jb6OFvIOVOhsS2oT2mHDAClDc5E+t5/dsp2pLzdhnS2/s9ij+XbkYD2IymlHTwAlDY4Eym58o/tSO78BVMjfmerOw8pb9hjU6kokc9HKG0AlaC0GwvTzCNobbYjnvua8EE1vk9qOx5xpmKf2mLGIZc2AFDa4EykvLXZjtRpP3L9s1lRH9T3k9hbWubkn4de2gBAaaMxvsgyeWuzHdG9HxFcoO17u7YfW+O0fKHWhV7aAEBpozE+fD8r4eqXbEfKuK9RnZ37yOjTUfFIO5fYQqLASxsAKG00x1dZKVemDdqOsB+54XW22vOQ8n7t6vh5nmsFXdoAQGmDK7Xlrc12RPV+xPtAyDqfh9wO8y5twfUjn4dd2gBAaYMzkfLWZjuSu6/mF2jrPw9pdmwRY0X3EaaBlzYAUNpokMtZec9O2Y4UtNuUzs49bxTak58yDOyDIpMASxsAKG1wJrK402fZjoj3I/o72/eRUSi1BZxTtSm/GG5pAwClDc5ECq78Yzviu6++H1TjOzG1PRD5taqPs/w67NIGAEobnImUtzbbEaX7keteZxf2tqnt59ZERtN8pB9WaQMApQ3ORDagtf/hb0fYj0gv0NZ/HtLEgjOGod4+8nm4pQ0AlDY4E1nc1ZtGj/9uVuO+BnR27jmjUV+ersGtyh8LsrQBgNIGZyJrfOXf7uYc7Ee+OZkJfGQ0GtgCWrq+XBd2aQMApY1m+TaTuDJlO6J3P+J9UI3AiVGpo+c27dwOpQ1AP0obnImUtzbbEV37kWdenMm8bVRK9RyIzEW2CEp7jmhtvTUYDtM0dW4j/UVnOBwOBoN+az2OKvmK1ta241tu/dPUXbR2S3zL9q1/RkYdwcsO4S1eq/7roLTRQO9nQk9O2Y7cy66SC7QFPjA6Hdj5Em2XEkaU9l2trbc7LpS/wliLbwV/Z8P572ri0k57IG/+AH+5cc7exm2kneGgFW+bOoq2W4Nh6r/H+Tvcj7dX/GV0Ntztf/bDar7TKG00zBuZ1OmzbEcE+xFdnS0/D6msXB814Tg4+7+fKO2oNXSBjIXW1vvDjcTOk6Sdvs7e9l6qs4W4tO2/Xs2i9XYnmfMGt9eXnttrrXaazP1OG6x3KW1Ke3nwYSZ3+hTbEaX7kTdfmcm9V+OxYGrC8Z0r4KKZZ22+jp2vvVZayQehc0WmoLiX2lz1pR33O86W4Tr92KjjJ15xG9W8Xtl3my+K284W4861usv7ZivxDmycW4/qUdrR4n4Wrc3XtvN11koz4Ertwq3NdiS3q+EDIQU+M5S2IiNbFWfKmCzqsXrUO7C5ykt72wufwpK0v62rsvtDZwXSQRzek8mBKSYq/TanS4jtqDVMbE7whSgt7Xhx51lsZQw4E6mptf3tCPsR/wJtsbfrnJxDoxqlHac2V3lpx+3ESrhzsZrVRGLlkk6rq7G049SeRdoyMn7sW1/1sU1pU9qciZQ7vWkC9K/N6t2nv7MVXqZNaVPaUc/ZcsYBZbYvqSa25YknqD5dpR31EsGvUl2zGHGaWIlzMaVNaSOcM5G+a1MTmn9uhmBXf2drOw9JaVPafvdUVNrbgvyS55jazPaqT0Fpx1tWRvDmymJf9oSd0l4CA85E6rle+yF/O8J+xPugGrlPKO0QUdpHibWVl7a/JlBQQZInqUvgWl0Vpb2fWil5a4/ayaL+1CltSnuhcDVT19qC7Qj7kWc+ni3QB/VOzseMSpR27KytvLT9B4z6H2zLX6i8P0Ms7WjLLkYvMmc22rKL42JKm9JGWGcivdZmO+LbDfQCbbm3652cjxqFKO1Ras9mrCM/w2rteCuxOa2tLS9t+Tstf5octcP9Q6e0KW18+H62UKfPTtmOyPcjCjo791G9k9MZfSjto8TKS1ve2RrbU7CPUdra8tKON6p/qUv5dutR2lUx4ExkuSv/2I7k7jch8Dtb7nujVlTPn3iU9kiQfuPqO1tLa3udrbW15aXdtlLyx9qxs8vgupT2glDa+CHLltnabEdyD4b4QTVyrxq9bBEXjS6U9o6kccdaOjvXi/R3tjxAKy7t0YZdvEcqG474+pR2JQw4E1mytdmO5B6uej9y/bPZ4n1gFEtsAV8bVSjttrVVl3bsNLSnXLRlV8t1gyvtH5PqX+lSv9/ORZT2QlDauJwtw+lNtiPefkT9Bdq+n4xiP9sCBkYRSjtKbdWlPUrt6qRdU5leYleuF1hp9+ySuO0KH2h70U9pr54BZyILuzplO/KnB8PpbM5D5g5sAanRg9IeOVt1aR8l+ttT/iBVQ/fJSzs6Z20Fuw3BekUQ/UKUNqWNr7IluTKtfDvCfuTGyWxJToxmHVtAYpSgtOWhLS/tUaq6PZe+DJZLWsGUdrRR/e9QcWKX70dKe9UMuFK7fGuzHcndH8wHQnKZdm5P0F4BorT3Eys11vBA29fT9EBbrhdIaY9c9S/0yK5En9JeMQPORJZvbbYjy9qP/J+982BSHEmicFYsPVShMx3SxjIuaIkbowmd2AOW9Y713nvvvTf//4K5MOd6RmShlwX7vl8wSJqOT6n3snQLtNmH3FD6Lnwm+wFNe557W9N2hbdhlAmUM96UkUvBtOsAe6ewvxEnNG0sQtiJ3Jb3nrmP2RFofgTg2Ruelb1m4vc7PkLT3rlo+8Z+0GsbpVUkg/GEzN6062AvuJc8jB9o2lCEsBOpWfnH7MiGvxp7NvuQCudsZA+gadfB25r2Hd6SUlAc5d6ckFmbthtCb6v9J5QfaNpIhLATiXFtQHYEz7lEDqphH3JD7g9l+whNuw7e1LTdJW/LiWA48SkQLhibNup2T+Q03NAjyS/QtIEIYScS49qA7Aie224VEPff0LPZh9yw8J3IJHlo2kNvatr10FtTOFEAeKEAiB/ctE88iDyTUxju3XcEmjZNmzyyxrs2PjtizjFsgXbvvPi07Dm3+05cktShaZ/xpqY9D96ekCUR0cYrKN60Ww8juA4ZbQhDR9OmaZNIXl8DuOcL++yIMefwns0+pF7m9mKoTdO+w5ua9iT3eAxUuw4+HUJmZtp17nEUyYR4rtG0adokkg/WEO6+7/CzI8b5ka8fegzCx38Y6SwkaWjadW5q2j+kJ5940cYTnJVpB4+kTCYtX9K0UQjhSm2Aa8OyI3iOwQfVcJn26eQ9+BcemnbwlqZ9kpB8XsCLth0F1rQBN7zrQzmxSuzQtEEIYScS4Nq47Aiec5DFfuxDduD2+OmZPTTtHZpPgxdtjAsBRBvPNRPTrs2H93W+p+82NG2aNnlvDeOZ++yzI4b5EUvP5jJtTbHpmiQLTbv2lqZ94pMiZHaijae0MO1g/kYR9veC07Rp2uxE4njiGfvsiBnHCM9mH7IDLt7AzKFpj/CmjRdtvGrbizZwhF/hv6DoH8szlhecpg1BCDuR9iv/8NmR9PMjb2zn2exDbijsv8pHQtNu+1ManGgDVBsg2niGDm3atXn5s/WGFDRtCELYiQS7Nj47gs+P4A+EZB9yQ4lfJrtjaNrB0LR/OGT77OeYlBAWRTGaTqdFUSyCVVRbb9rnvQVVMi89DU0bgRB2ItN17ePxfnBsv0A7ktfkIHC+M1NJEZp2a+gRRz6WfDGaVmXbTpqmmbRtVU2Lhe8O6lE946MJo1k5mWfyX7h5U86KHGx+etOuu//eafWv+9q2ZTUtQnxqQ6H6oZjOqv94vGI9fUjTRiCEncgdcs+TskPOjveFc/aezT7khgI+PbPGVTeni+wV1baUvZh2sDPtOo9y7Fk7d/L/yJpyFOXbJ9IBXEYmH5UTJzeknsyUvzhgTXvU5fdOy/9zZ11TLvV3tdg2O5IXszZz8n+YT2aF1zP4A5l2dXO6XMphtTVC2IlMdeXfrbeNAQDyIwrPBvOdHAgTvL8cyPbDShTs3rTbLfV2M0Fumuw686a5Pm5c5CrTroPem1aNkxvjtO65YQL6T9KBomykG3U78goqpGkfdbi1c/1v7PAOGHbzfDWz4HWEQzRtPdW2H5kI+X4dj6FrH4/3h2Prg2q4TPs6Lt9r1aZpd/aFMC1Ptw83n1TXx8hN/9nlfDpxnd2zsF+rHfVG0TrZhrpdKH8rwLQ7RDfyVSY3w+luatH580KxyqQL81kwGWrTtAk7kXvs2vbZEXh+5OmPHtPDPuSGSl+/soemfdRRbrsZ37zN+s4uF82W7lkG61ZkUE+znWzPfOm35BLOtOub3FvpRr3UDrVrfxPyWSPdmRTwoTZNm5DP10Y8fJ99dgSfH8Ev0OYybX0nckPhJCVo2uc7aPaqkS4Assv5ysn2NCPNTg7rkPaoEQUqD21gpn1+F569oV7lqqH2+fgHLF76v5IIaNqEfPDe2ognnrnTNDuC59jcs9mH3LDULyu2haY9nE4jR3x65n5rigHAPRX6qfIWvfF1oF5s76AI067jPTvinjYidQ9XvS6wO7Vp2oR8uTbjiUf3PzsCzI9YefaGh+SAaLZ0iIHYQ9PWCx84u6xXsUgvy11vPxRw2duwnYMCfOnnweBM/F+FiEs7HAx+vuE/MIu/2KDrTdMmXKlt6Nqm2RH7/Ij+oBr2IfWMECvU8NC0w0B64zz831Iv/HaMsD9Ub3zxk9YC4kunM3OiYuV3R2hw73GfSRw0bcJO5H669uXx/nFsvdiPfcgNNeC4axw0bYBnyx3wIa9i9DgxyY4MG9kNK+SQtQI4rmKsrZB9HZ/kuO8lNG1C7lrb8sSTouHieB85Z+zZ7ENeZwY4GQQDTVvvtj0eWVNkokc/esydwd6RleyMT4BDVr1px93deuR3QV5iU0KlxEHTJuxEGnPPfYrsyBgAID+i8Ww878ph4XK/LeErAUDTBtiPhqCyIPhY+xp878hwLjtknutfKmCmvYof3UcT5hJNvQDGdWjahJ1Ic+6+zyg7kn5+5PGHHjPnUzk0PvHbcymTRKFp5xPplRM76a8XyOZarY8wgFW7MjLtvBUxV+1hJjvALXx3HE2bpm0PO5FY17443lfOGR8IyT7kdQqv4MTetWnaercF+edKdswKOHo8r7dOsGr/3ca0wxxwR1GnFLkFKj5C0ybknnX6ro3PjqDyI/oF2lymrWcO6NyBoGmvEnovyxvbLzAlcKQdMsunoOnBl1A/eYUQ7Q64AHqHo2kTctc6CZ545j58dgTPsZ1nsw8ZP9KydW2att5t9bTG8ilNDipFFvERhmhWmE5kZSbaG5bGoq2oRTqaNk3bHnYigSv/Lo73mXN6z7bhYzlEFl5HwGdIaNp6+cHaSOHM/wkV6g4sne0XhBxv2iETQeY2AA/83HdlIDHQtAn5Zq0H69qA7AggP6I6qIbLtPF72+y7kTRtvGjrs8vLBGw/d5gNK0vz/5kN2rTzLIE/PyEziiZN8aZN0ybsROJd2z47gsqP3K/wbPYhgUvlioGkAE176BI652iVxGC9gtyApf2D8BnatOeyQyZeR2NVQsglBpq2EPLeOiGe+AWfHcHyUvwCbfYh45n5CILFYJumjRdtGaVRzJznvQ+1C71oW8hfDjbtMoU/Pyu7j3sXJAKathDy+jop7rkPnx2B8ircs9mH1JvFaRQDW9mmaQeX0KePVSrrcqr+z2EvkvipDdS0V9bHZ20YGpbDS4mApi2EfLBOjLvvw2dHgDwvp/E1yLO784ocLHXwkYwGTlDQtAEZbX12eWnv/JFD7fPpvOEs+z+8pjJ33E9MkuL6VX9TvGnTtAlXatu49sXxIfBS94Nq2IdEtCL1jIwm2zTtPEsozf+z9M+q16F2ndK6l/4n65X9W12hz45YPOMBb9o0bcJOpIlr3zo+DF7FLvbT85wYYxN+TT9GQtOeCIAAmPJ2puh1qN0sc0Uz0HConTucaQ9k9zR+S4LtQ+7Qpk3TJuxEAnjmPnx2BMTzAM9mH1KxAUBJOHMkUGjaKwHQ2k95Fd/5S1HSjvQX3kBCG5hpX0qiKDKxfcq/gps2TZuwEwngiV/x2REQLyE9W89DcuC0fmcU5QVBQdMeSkIj7blgaHovLNZtoZVOvISWKNMOGfZ2Km4roJxZ4k2bpk3YicSv18ZnR0D5kTfiPZvLtI1Ve0MApbZp2iFL6OFYCYoZYCtHXQb78X3pO/APlGkPpB9yvw0XpC+qfiuRNG09hJ1IvGtfHh8OzwMOhGQfEqzaG4aXbnHSMzTtgSAIqmiBfX5kJHHMl8H2wovzHchBph2whotfreh6vww07Q2EfL5WAHbti+ND4iXIAm0u09bXIvUU1ZH0CE17KAiOUOP17jTxnciofuSlpJbdX8VI7sT8/NENjXnXNtK0adqEfPDeOl3ueRKeHQHwN4Vnsw+J3autJx8NLkhP0LQxcjuCGVB3ZrjzDNsRZrOiPj7yFcS0iyQOzwr4q61XYZq2HsJOpO3Kv8vjw+LyFZRnsw+JV+0N4dItWjOhadvnNWrfhZlAcTlQDuu2sEqk1z2/UFRJDJOrRPJSdW/LR2jahOBXauu5+7fxofF7l4Nq2IcE4Ea+L4a6/X80bfu8xnngJu3uVPr2XHQ/MgiOf7J3Ly5yXNnhx8+Vumfu7eLHD26RAGrorm6aqE1Nt+ehiWIWMO2FgGHBwWAIazNBsRaLxXZkHhk9RpF2Y3tjrdexs5t3/tjsLGycdSTP7ZmqU6eqvt+/YGyNNJ+uOefU/XpBMzPx6vmxlV/j3K/5gw3SJrKwE5nQ3552jdoPbEP7rTelNx37hGzc/0Pax4a2DweinAs1vCcycT9yYOxbck9D2qXUWPSJ7RsYSrp7VWkjbaLbG/M97Ji1Hz1O8C77kCqtok/IwP0/pB0zO0dpFkaP5QRJL3k/Mohihb+4qCDtoPAXr/lPdBNfgx+RNpG9nciEzh52i9pPTEv7jqTHsLbW/T+kraTbQ59QJvqFRp7Erka6z+/H9b4gfGaDuIVPzBm4qrh3ZWkjbaIPNi3o7O+YHzF7TJsJEoX7f0g7s7OSt5YGKnwzf1pL0SzJfuPapR2dhbd++tzCWHyoVNpIm9iJxNrMj/yl9K0yeIXilQZJkPa+qHSjhtVMxfMje6Kfvv0GtUt7ofB5IqHCxEXLNkobaRM7kVj7Cce0DbU88gk1uiOJtO/ZmdE4lkaapbulxY1qBejMwj5k+kpkaeJOuzMgbaRN7ERq9fQZ8yPsQ9bRKnilwmIo24e0g6g0TP5S9HMmnoJasN/duqUdTGwD+GhjzzbdwkibyNBOJCf/Hj1mH9JS7th7w9hG2gs7wyPH0lC5/mSvfkWtopkZ+W571caYtgxrGotH2kQGdiKx9hP2IW21PPR2sY20S1Ep6k9pp1fqr/LZvGa4X7e079l4u/5dGwvAZTuljbSJnUis/YB9SHsjJIqFnXSxIe0oKk2aeN6ZXkxiUbtL8dNe3dJ2UnMzK7sJ9V48RNrfRvTGpl397JT5EfYha+g4eM3ygROk3bbLI5n1GeZ2N651jHpmZGqjsPKLnKgkbaRN9M6mZZ09/DnzI3X0oSTEFZLKiosh0ja06BeaMH96ZQ8GtZcGpD2zsYnoXduPKiLtbyM62Whk/+Qf8yNvi2Bt3XYHSPvixmYmF+6J2B4fcd2Xtq9Z2qUNaUcjr0QtkDbSthcntbF2+vwI+5BYOywypP39RTPTGUGabK3BRKTtbEg7N3LPZoa0kXZrYycSaz/hmDbW/l2LDGkbGIk4tD4GXfZgULt5ae9J9SFtpE303qaVnT1jfoR9yBpaHgevWz5E2k3rcWl6H/I8161BbX2dzYys3668EbiNkDbSJnYiL+rpKfMjlfW6/E+0smNtpF1YOeW8J82W1z9pg7RnRqQ9a9s/AUjbYMROJOe1n9g9pk3lkRFrI+1SNBrZf9n5Ookubc7pS1tt6RVpI239iJ1IrP2AfUjDLbUfbOcZ0m7u9EhQ+EIUBrUH0uaWzUu7NCLtAmkjbWInEmtXMT/CPiQPti/YjUTazsg7U4I0nOv8SuSweWnfNCLtAdJG2sROpKlX2ZwyP3LV3pUXRMtV7jWbOqT93ayMaS+k6e53fSVy1by0pe6QNtImdiJ7efKP+ZH3hV7Ssjj0eoUB0m7iUfINhQlejT+yKG3uho609b/bkDbSJvpo00hY+9Fj9iFb0HKtiO1Rps82pH3YhvcvFl1fiQyNS3sPaSNtpE3sRHbL2n9vRNpvCn1vyyL3Wk2RtvY8hEs3WINNmr2doU9QfWnnUk9IG2kT/XDTTLzK5lP2IdvScjXyOoUMaetKe9iKXcOl6s0K/QLSRtpIm7rbSUM7kbzK5jMT8yN3JCkqj4L2Y22krdCs+YfFHB+ZeqSNtJE2dbgPNs3Eyb/POabNOZKE49pIu85GOte0FY6P7Etb+9jrS1v/fx/SRtrESW2sbWF+hH1IHm2HCdLWk/ZhO456HKotkOp3y+tKW99LSBtpEzuRvbU28yN/Jfbi0fYUaWtJ21XxZRihkbQy94lH2kgbaVPHu73pTr94eMr8iN4+JI+2FSZIkDYLkSLrjp75c9PokTbSRtrETiQn/1TnR9iH5NF2yJC2irQLrZseCj/xS2lbw53oPdJG2ki7toidSKz92T+wD8mj7RcVJ0hbQ9rrlgB2pUA03dxwJ3jvkTbSRtp1RuxEYu0vGpX2j8RsPNoukLbUX558esS+tGfSlq4NdnJ/HtJG2ki75oidSKz9nH1IHm2/uCnSNnE9z4mBJt34ie+uXS/mu9Gnh7SRNtKmTvTOpns9/WVL5ke+bA7ar4vleLQ9Rdq1580f+Uv3xb7Y7dpwMJvnwaeEtJE20iZ2Ijn5pzA/wjFtHm1PkXbNjf2F7bVG2nsGgT0eFDvz3eDTQ9pIG2lTJ/vpprGw9nP2ITv1aDsqUBtp6wE2b420g1jJja+nAxtpI22kTexEYm078yMc07ZfuQ5K1EbaCkf+wsxCN/zFRQuPsGfzUYj+OyFtpI20id7bdLWHp8yPtHcfkqntKdKus5nvUg0+wx4U81Hw6SFtpI20iZ3IznT2kPkR/X1Icquj6CuoQNo1NvJd6mYjxE64JYK0kTbSJjrZ6MfJP9X5Ef19SJpUsSJZIu36ypH25Y29k/4UG2kjbaRN9NqmX9ZmfuQtUYjKKz/ZjhnSrq1D36VKUena9VmCsZE20kbadiJ2IrH2c/Yhu9tk5K9UcEi7riLS3ip3fSePXj+kjbSRNrETab+nz5gf+d+9K1rRcnXor9AIadeVb236RhsX8+ATQtpIG2nbi9iJ5OTfFxzT7nYHV5kiKZB2PS2RdlrXilH0CSFtpI20jUbsRGLt5+xDdjy3Cv6yjZF2U6+IRNpuMNdXNtJG2kib2InE2sbmRzimbb9ypDCqjbTTG/p2pf+H5orcVxLSRtpIm+gnm370s1PmR9iHbKrlkb9UryDtOpog7e/LTatjNtJG2kib6ERhJ5JX2ViZH7kj1Cprl0i7hlZI2/bTbKSNtJE2sRPJyT+F+RH2IbH2LtKuoQJpv6ThTvR6IW2kjbSJk9pYW6Ev2IfsScvcb12BtKtvhrQVHmcjbaSNtIls7ERi7efsQ/al7e+QRIe0NaSNtN00+jpC2kgbaRPd3vSqs2e9nR/5UKjh3FphKRJpI22rzkbaSBtpEzuRPehXpz2dH3lbqPGWwW9XhrRrAAfSVnM20kbaSJvog02zcV77OfuQPerYb9UCaaeHtO07G2kjbaRN7ERibTvzIxzTZlo7Q9rbh7STGwZvMaSNtJE2sROJtRXmR9iHZIJkgbS3D2kntvzEN9gx0kbaSJvYiezyq2xOezU/8rqQldyo9vMjSBtpJ3Qr+uYKpSBtpI20iZ1ITv6p9Mdf9eqYNh3XKymkjbQTcp806eyBCNJG2kib+tI/bhoOa3/NPiTUfkkRaaeHtFsxoR3zUgRpI22kTexEYm29vmEfEmq/pBJpp4e0U7vVGLNHKyeCtJE20qZe9cam6XiVzVfsQ0LtSuyJtJF2Qju+kfJ16UQEaSNtpE09651Nn3t62v35kfeFrHXkU3NIOz2knZLLvXrxW2UjbaSNtKlvnWwaj5N/37AP2a/coU+sQNpVhrRluauM7MP16kDOQ9pIG2kTJ7WxdgfnR956U8hcy+jTypF2lc16L+1l8GqF0XqVyXlIG2kjbWInEms32tfsQ/as0ifmkHZ1Ie1lUDP2gZPzkDbSRtpE70HtXzT+Kpt/qk3ad4QstvZpFUi7spC2qxnaMYzWxSSTPwxpI22kTexE0tmvG6b2g34d0yYXfVL7SLvCVj2Xdu5rKuTz2eogk/SQNtJG2sROJOe1NXv02NQ+JFlBX0Tayl9FDK2paPq8Xwyj3wq7TBA20kbaSJvYiaRmrf2kZ8e0KfdJjZF2dU2Ufotgs1uVDmIXkwMn24e0kTbSJnYisbad+RH2IVmKLJB2dQ31vwo7Las52jf/ziA20kbaSJsofSeSnj4zNT/CPiQPtedIWxebe9KO9Lchv72MjbSRNtImYifS/sm/hPkR9iGZ1A5IW1faQdqWwpB2zIvSyeVC2kgbaRN9tCF9a2vMj/xIqPXnRxzSrq7+Snt8lWfZFSsbaSNtpE3sRGJtI/Mj7ENyU7tE2tUV/cVJJwv+cuVFJlcMaSNtpE10e/OH0cPTLsyPvC7U/p3IAmlX1/1tfonA3ZFw7OTqIW2kjbSJTtiJ/G5nD9s/P2L9mDZFn9BdpF1deboJLKfzFva8lGpC2kgbaRN9sCELJ/8ePWYfsk+96hPaR9q6/8dL6V5Tv20x/XE20kbaSJuIk9ptsfaTPh3TpsInFARpq/4gHXBKO93ZSBtpI20idiJbZe0H7EP2qHESepC27pcx45H22qlcgUHaSBtpEzuR9Jtnzc6PsA/JoLZD2qqvY5/3/fDIbinpIW2kjbSJ2Ils1cm/J+xD9qhDn9BNpK06RrHf5XckJXQsCiFtpI20iZ1IasjaD9iHZCWywg09pM2raw59euFAFELaSBtpEzuRpGDthPkR9iF5d809pM1Bba19yNwJ0kbaCSFtIts7kVhbYX7kXaFuHB8ZIO3qGvmLG3f081xCa6kppI20kTbRO5vvj1fZ/LxV8yPvC3VhgBZp66tzIN0qGBvRRtpIG2kTO5Gkc/IvYX6EfUikPUPaul/HXelUYxPQRtpIG2kT/XRDRqz9pCfHtGniE0LayuzMpVMVqqMjSBtpI20i+zuRWPsB+5D9aKgsbaTtVN4VZKrcpxWk1pA20kbaRCnjI3T2rBXzI3eEkDbSvtzxkZvSoVwqtDOkjbTTQ9pE9e1E0tNTtfkRjmkzp4209c0x6NunOf3/aIe0kTbSph52siEzJ/8e1LAPSUgbaRd9W4mc+aQWBm98I22kjbSJk9pYW39+hH3IziqIK38KlX17S+TIJ5UhbaSdHtImYiey/db+/CrQ/lD603Se1MT+O0WQtpmxBde7a9oLazMtSBtpI21iJ5JX2dRr7U+vIO23pT+96pOat+F5I29jV+iwX4PazuQjbZkgbaSNtImdSGr25N9nj9mHrPBV0/vtPcBWIm3tb5h53xYiF6JcgbSRNtImdiKpYWt/zjHtCt/LEcRi0Sc0RtraX0ns2cuRfCnKrZE20kbaxE4kNW3tT9mHTGjl02rvb/ZvIm31/+llv5Zug2g3QtpIG2lTP/vJhrbt7J+tzY+8Ln1q7NMat/Y3+4K01d9dc7dfewwL0e4QaSNtpE397MTSTiSvsvmcY9oXt/RpDdr/vBFpqw0uxH69i/2eKOc80kbaSJt62gcbMnTy71P2IS8u+qTutlVBOdKutrJX4yO5yauGQ6SNtJE2cVKbDFj7sy/Zh7ywQ5/UntjLp7SPtKvNxT6Nj9w3+XejQNpIG2kTO5FkwdpfVLUPyUFt71o6pj1D2g085o1OulE0eQJzhLSRNtKm3nZ7c9mojlfZPK9oH5Izf/6eWOtG6teNtPW/YwbSjdI/zGkWkTbSRtrETiRt39mvdedH2Ic8b+LbOqgdfEpjpN3EEm0u3cjkh9ChR9pIG2kTO5FUw3lthfmRt96UF8bxkdjO4REvSNv+qznN5my+twZpI22kTexEkhVrP2cfMmXnK6GylcMjOdJu5rrioj+fQ8eiXEDaSBtpEzuRpGDtOuZH7kjvGrVzfGSZ+FUj7Wbu/EXXG2nfNPO2KaSNtJE2sRNJCT19pj0/knBMm5VIY3Sa+qQGOj9m532StuRN7gki7RtIG2m3V9r7QtS5nUhO/j1nHzLhCWVCRQv3If0YaVffrDcPtZ1FaQekjbTbK+1crh7RTzdkytqffckx7fSTYW35F3LlkwqCtBX8aeyh9iSOBplUkkFprzzSRtpIm9iJJEvW/oJ9yIRB7XbtRC6DT2qBtBsbH4mu0WXZ3Z1hN6WdI22k3WJp7wlRBb2xIVuvsnnOPmQVg9o+b92Uth8o/ZjN+yXtwqf0StPD1RU82o7mbo8sPdJG2i2WdhCiCnpnQ9V09rDu+RH2Ibf60V227kvOlH7Mhn5J20WfUmng/mNYDF3NNzDvmdyHRNpI26S0oxBV0MnGWJz8S5wf+ZH0s9wntitGStXGniDtBt+dkhuZLMqLsVyyQ2tvnl96pI202yxt74SIk9pdtPZz9iHT/3m0f35kpfr1vuoT6pm0S59UYWayKCyuu7qWGO6KYjeQNtJut7RvChE7kTatrTA/8qH0tNKnFjMj65CJZWrSvtkvaUvuU4rO0ndHXgxr+cPfF72GHmkjbfPSVpi2IuKkdrX95pnC/EjCMW3GR/yoVV/unqhJ+17PpF36pEbGlmXDYpC1evA0IG2k3XJpF2IxYieSfnVa0/wI+5DnzXyb5kemPrWBnrSLnklbok/qY1FuGf0FbXX+b2Xr1+G3PNJG2i2X9l0h6uZOJOe1P/uSY9ovzfkWzY9MfHKZ3vbfvG/SnqV+v1hclo2jVJ+N07Cn1DIibaRtWNqF3UVpYieSFKz9BfuQVYyP+F0nSRnARq5oytA3abto8l7N2Ke1qPJD6Nze31OknR7S1v0Ti0LETmQXrZ0wP/K69LjSpzc3sA2Z1kBR2t6ZlLaBkaNXRLPg07onid03tPg59Ugbabde2n4sROxEWn6VzWnl8yPsQ54XfXrTlkA7qP70uNc3abtocLR/Wvn3xsjONYWlR9pI27S0h56VSOr3TiQn/75I2IdkJzKhohXQ9gPVwfC7BqRt9HtmbO8G3qLaKf1c/5sfaSNte9Jeao71EX20IXvWfs4+ZMIDSp2DEgrWyFRHf2PvpO1i8hatue+PUlKbmPkw8YlH2kjbtrSdT8oJETuRnbN2wvzIu8JDbUVqK0B7ofzTozQgbaPfMyEztjAYqv7TXxgZjEHaNYS004uMj2hGtzdUX2fPqp4feV+Eh9rGB0gOgt+mTPmnx6J30nZRn9r6h9bv+5Qye9BG2khbXdqHmuMjRCe17kTS09MK5kfYh0z46WpmLfLj6Ldpof3TI7q+SVtW3hK1p/UchV+bsMMtj7SRtn1pv6r6C0CiDzYG4+TfVwnHtHmorXC8rfZnepn6T49Z76QtuSFqf1zTp7CJBTt87JE20m6BtGfqz0GIk9pkztpfsw9Z0UNtv5uJXsvcb9daqqvwSUXXO2mXvnpqK1g0q2FMPzhr0Eba6SFt5Tf4ZkLETmR3rf3NC6V9R8hFv12hFK0mW39tWQOefKV30pYjn1wYW4H2opYH9yNTM9pIOz2krX/zPReituxE0i+2f5XNVxzTTv/5amNY2+34bRtIhTmfWNk7abtoY4324xoHiwqf1tQYtJF2ekhb+x1oEyHq7k4kJ/++Zh8y4U3Wlm5KrKLftiCVdujTCq5v0pa/NjHbP61zV9Y1e/vSfeKRNtJui7RH6VvJROxEdtfa37APmTwlkYCnTOptmPvtG0ulrX1i895JW/IKPpnp/s4jq+0/sdQ/Io+0kbYpaRc+sV0hYieyw9b+in3IhKnb1MJAaszd8Jdo0dhHkGnvpL2MfotiIZW33K15V3biE4sTqbpb0SNtpN0eaS+97mMJojc21Ly1E+ZH3pb0WIpUtLabXu4Lypr7/zI1KG2F+ZH08qzZO+shq/OPv9CfHEHa9Ye007uvS22idzZq0dNfplP7CfuQ6U/vdKyd4Oz0Bk2OSLzSN2lLrrBHW51FB/XuCk/1T+4g7dpD2umtNT5124/YieTk34M/kPbfCKXPj2hZe3jDX7K19o98hVlky9Jexua+WW5FjV1Z59MbZfo35JF2zSHt9Eqbh2KJk9qkbe1Hj1+8D0ku+EsWFhUK0xWXV0ZwTY/VTDMD0jb9m5AwbGpbNpPLlOt/jnBT75E20m6dtCX6LVpkQsROZNutnTA/8rpQwhOJhPKBVNJwJ/rLl9X1oza9MM36JG1Z+63Lh0042x9r/K1YZPqTU0i7rpD29t89WFs1Uh8focRX2TzgmHb6glt6cXHd1cLs9AobH0BGAycvbXy9W9KWwwoGjhSc7YPSLPo003c20kbaJqTttn9Ck8lLu3ZdzEXsRNLZw/T5EfYht3/1QIIxL80MN5hflRhrO5bMd66P3f/5uVHMd6OPBqWtf/Q5LMbK00WZ1ietMM20Pmsi7RpC2nor0uft7lwfvuDfyp08eu/k+yM62RiNk39POKa9/ah2OqEGWxvq2mAn+PS0X4dQ+MsVd/PR/HeN8hD87xvbl7bK0NFukSlStNDUw2Jc32eI1QppI22r0i4v/29l/oJ/K+8JETuRbbX2A/YhE25JXL6Yz66PE5F9fTaKvopCZuDUeEqFfWlrDR3t7gwlPXeFJ74L5b8Uu9v+dscN8pj4H4K0kbZVaUvuq+yuELET2VZrP3r8kn1IOvCVtTvaKYZj9xJhj68Pds6HKc6zDe00faQ375q05fhKn8qKoUtR9jSP/tIFp//nnxfjZBIVefq3OdJG2nalXfoqy8VqxE4kPX2WMD/CPuSVz0en/2LwfIpi9tvmvy3PQ/BVFw8MvD8zrdA5acvRlT+UvfyXIO58vj34KxWzZoaq4ujCjxHXrp8PpCZ3XIPOkDbSNvpQOzohau1OJCf/zudH3npTKO0Bpf0mBuYjUnOdk7YcVjN0lM9ns2Lw+2az+Wg3WPjuKP0V2s1f+Luda+NBsfUvdUINOkPaSNvsQ+1SiNiJbK21Hz1mH7JL1F5JvQVfYYPuSdsdesMd13g1PL0Q8t8XQvSXaoK0kbZtaUuuv9RC7ESSSWufz4/cEUqiNtCWUn/Np1XSlmXoMrTFBW+hhSBtpG1c2ktfYftyUUQ/2VCj/ex7rP2AY9qdofbKwiRyermmtKH2WuGjlk4hQ9pIW0HadhbIo1wU0Qk7kXZfZfPoX4Q6Qe2YAG1bS5FOT9pQ+6g7fyUOFHSGtJG2pV8A3RSi9u5EcvLvX/9EqAvUjgei0cRXV6kmbah9pDB+qtSxIG2kbV/acqC/1EI81CaT1v5/Qgk/6MwXMtFp7Sur0JI2a5FHCk/qlPpEQWdIG2lXdKuJd9cQD7Wx9h/J90YHwbeh3ayFjtzvprTFHZmDtsL7U5UKDmkjbQVp2/oF0J4QteShNp09++7syL8JJQwDWO/ISXpmpBV1pM3U0bHCL8WVClm9OkPaSNvkqLYTIs6PtKVfnTI7ovCEUrmipW+qv6khbah9rKE//W0EpI20jUtbllFzqYXo3zf24rz2Xwi1fy8ylG0dXh90VtpSBvs3aVpI7QMFnSFtpG3psUT6/1uikzc2ZM3a/1+o/cPaedbajx53a5c2U0fhoEOLwitB2ki7TdKWlebbB4h+8OcbMmXt9AN/tDzyRotFi5/y7ylKW7+1N1DuOnSTZ1WfzpA20jZN7ShEraM2r7I53WobklahdzdHFKjt6pU23zPHUlOT2OiMNtJG2i2Rtqz6+u4agtp09h+thzaPteNxy2fXy05LW5Z5dyf4D4L+GAzSRtrtk7asouLaO9HJf26sRK/9QLaLVoEJ7Yp/fMxqlDbLtGvXoUH0kKnqDGkjbVufSueSGNFtI3e16bZQyx9rh0H7V/7yrktbloddfKCtf/4ydwo6Q9pI2+y/lUFSI/qBhcfa9MZHQhbHAdKLx64DiIx1SZtfhaxdl57YH2vrDGkjbWOfSp0kR/TDpqe16b3/Emr5CMki68ZsxLgWafOrkLzs0inDUCroDGkjbdP/Vt6TLSL64WsbarA/Y0K77dbOy668n6WoQdr8KiQORCm31t9HQNpI25y0FT6V3pUtI2ZIeLDd2PPsPxWqwNo4uxJpzSuXNt8yuoNFZdC/GI+0kbYZaad3rP3uGqIfv/Oa9nYkvffBj4Vabu2FgrP1HtWEiqXNt4yqsxWmtT/JFHSGtJG2+c2WKJfpv9m7g91WcSiM4/YuJju8rISAzSBZRsJVGlhO/QzeWF1OFClSnmgEzzoh7ajtje4tScKJId/vDZIY+PvUqAB+/W/TtqMHN7Rt+1pvLV6DvCEtH+A9SIKG5I9S2jStHa/4rA6iC0VSZyhtlHb494AndjmAl723bttgxn1jb+2udnazx3GRsfoiXtCSKWchKlaC4DWfYaUdNCXD7+yQDqLHK/o6Q2mjtANt7ZQB3ELnN2tXN69o7mv6uqm3a+s7BmPj2izIxKVi1Aha+58HKW2C7ZlU89pExCtOVmcobZR2AK1Nvd4Azd3PuXeI7qF5/fo+v0Zfk5eTIMlsqfg8j65LgtIOCh/n3FG8emL3pSLSzkZpo7TDKu3htMH/roEwo/sw6W7/hq/afnp9zOt7ng8BNXZsxzLl0/giFueLCUo7NEUpFjcV52pmA3ux4pR1htJGaZOqLnpo/MUIALwcq/twvqRp3x52dt3XtfUh1TWo0oyW2bnmEzpOI8c4EkNQ2vQrRgSwQkId2EtFXGcobZQ2NR3F526nOQO4S3av3Za+u4nbuqlrt7Yb3wV8NASK4TfO4eRKsYnhyeBpjTnv5Hmhflax6ajSG1SpKBUPbmBP9N6vGoANd/5qK9j4CjUAZ+N7GuELIfotuRqA3UHyLCZ2nQO6e+83x/DeNU3bTrqsd8e0th7HQiamSqPbTSrldO+tlY7Mj58u4VgwPLnmjyEi18swf//MXL63XDKAh1Ho55/ulabUuChCBV3nvbfWuW1dN318vwVY1Yesbup665y1G7+fwdAaiqSU1w63TZ5Wk49IlZaROfkmhInKNMGD4xNXWSQu2IdpHnhAiAkcgwEIgEqy6PSpEYson+C9EuDlmN8ba9fuWOC75qA9GPW9xWNPN/WBc/2s2nq/7+Zc1VAlWWQWFxBRqatZ5cayUirRWidKVUs8NX6/Lxm4QYtN//SdzKZz+OZy9nM7ANwrAbqef2c/uF/U/9u679b2g+/tu95jn/2ApdJZLs2QgBImx6gXqn7FRFKIk/UhTJRnaVLxKW46/7SHiK/ZXAIAAADwpVI6zbI8j+QXeZ6XWaoTtURnwOmi+TSDT1MpnX67APrFr5Pq5LP9xx4cCAAAAAAA+b82gqqqqqqqqqqqqqqqqqqqqqqqqqqqqqqqqqqqqqqqqqqqqqqqqqqqqqqqqqqqqqqqqqqqqqqqqqqqqqqqqqqqqqqqqqqqqqqqqqqqqqqqqqqqqqqqqqqqqqqqqqqqqqqqqqqqqqqqqqqqqqqqqqqqqqqqqqqqqqqqqqqqqqqqqqqqqqqqqqqqqqqqqqqqqqqqqqqqqqqqqqqqqqqqqqqqqqqqqqqqqqqqqqqqqqqqqqqqqqqqqqqqqqqqqqqqqqqqqqqqqqqqqqqqqqqqqqqqqqqqqqqqqqqqqqqqqqqqqqqqqqqqqqqqqqqqqqqqqqqqqqqqqqqqqqqqqqqqqqqqqqqqqqqqqqqqqqqqqqqqqqqqqqqqqqqqqqqqqqqqqqqqqqqqqqqqqqqqqqqqqqqqqqqqqqqqqqqqqqqqqqqqqqqqqqqqqqqqqqqqqkp7cCAAAAAAIMjfeoMJKgAAAAAAAAAAAAAAAAAAAAAAAAAAAAAAAAAAAAAAAAAAAAAAAAAAAAAAAAAAAAAAAAAAAAAAAAAAAAAAAAAAAAAAAAAAAAAAAAAAAAAAAAAAAAAAAAAAAAAAAAAAAAAAAAAAAAAAAAAAAAAAAAAAAAAAAAAAAAAAAAAAAAAAAAAAAAAAAAAAAAAAAAAAAAAAAAAAAAAAAAAAAAAAAAAAAAAAAAAAAAAAAAAAAAAAAAAAAAAAAAAAAAAAAAAAAAAAAAAAAAAAAAAAAAAAAAAAAAAAAAAAAAAAAAAAAAAAAAAAAAAAAAAAAAAAAAAAAAAAAAAAAAAAAAAAAAAAAAAAAAAAAAAAAAAAAAAAAAAAAAAAAAAAAAAAAAAAAAAAAAAAAAAAAAAAAAAAAAAAAAAAAAAAAAAAAAAAAAAAAAAAAAAAAAAAAAAAAAAAAAAAAAAAAAAAAAAAAAAAAAAAAAAAAAAAAAAAAIBDm1TkWOhbLWYAAAAASUVORK5CYII=;" vertex="1" parent="1">
          <mxGeometry x="10" y="2160" width="300" height="83.29" as="geometry" />
        </mxCell>
        <mxCell id="B7J31swfIntdvlFsxO-T-2" value="Login Page" style="html=1;whiteSpace=wrap;strokeColor=none;fillColor=#0079D6;labelPosition=center;verticalLabelPosition=middle;verticalAlign=top;align=center;fontSize=12;outlineConnect=0;spacingTop=-6;fontColor=#FFFFFF;sketch=0;shape=mxgraph.sitemap.page;" vertex="1" parent="1">
          <mxGeometry x="550" y="1978" width="140" height="100" as="geometry" />
        </mxCell>
        <mxCell id="B7J31swfIntdvlFsxO-T-3" value="Registration Page" style="html=1;whiteSpace=wrap;strokeColor=none;fillColor=#0079D6;labelPosition=center;verticalLabelPosition=middle;verticalAlign=top;align=center;fontSize=12;outlineConnect=0;spacingTop=-6;fontColor=#FFFFFF;sketch=0;shape=mxgraph.sitemap.page;" vertex="1" parent="1">
          <mxGeometry x="550" y="2160" width="140" height="100" as="geometry" />
        </mxCell>
        <mxCell id="B7J31swfIntdvlFsxO-T-4" value="Question Answering Interface Page" style="html=1;whiteSpace=wrap;strokeColor=none;fillColor=#0079D6;labelPosition=center;verticalLabelPosition=middle;verticalAlign=top;align=center;fontSize=12;outlineConnect=0;spacingTop=-6;fontColor=#FFFFFF;sketch=0;shape=mxgraph.sitemap.page;" vertex="1" parent="1">
          <mxGeometry x="560" y="2330" width="140" height="130" as="geometry" />
        </mxCell>
        <mxCell id="B7J31swfIntdvlFsxO-T-5" value="" style="endArrow=classic;startArrow=classic;html=1;rounded=0;exitX=0.682;exitY=-0.024;exitDx=0;exitDy=0;exitPerimeter=0;" edge="1" parent="1" source="B7J31swfIntdvlFsxO-T-1" target="B7J31swfIntdvlFsxO-T-2">
          <mxGeometry width="50" height="50" relative="1" as="geometry">
            <mxPoint x="570" y="2130" as="sourcePoint" />
            <mxPoint x="620" y="2080" as="targetPoint" />
            <Array as="points">
              <mxPoint x="215" y="2030" />
            </Array>
          </mxGeometry>
        </mxCell>
        <mxCell id="B7J31swfIntdvlFsxO-T-6" value="" style="endArrow=classic;startArrow=classic;html=1;rounded=0;entryX=0;entryY=0.25;entryDx=0;entryDy=0;entryPerimeter=0;" edge="1" parent="1" target="B7J31swfIntdvlFsxO-T-4">
          <mxGeometry width="50" height="50" relative="1" as="geometry">
            <mxPoint x="170" y="2228" as="sourcePoint" />
            <mxPoint x="470" y="2370" as="targetPoint" />
            <Array as="points">
              <mxPoint x="170" y="2360" />
            </Array>
          </mxGeometry>
        </mxCell>
        <mxCell id="B7J31swfIntdvlFsxO-T-7" value="" style="endArrow=classic;startArrow=classic;html=1;rounded=0;entryX=-0.029;entryY=0.372;entryDx=0;entryDy=0;entryPerimeter=0;" edge="1" parent="1" target="B7J31swfIntdvlFsxO-T-3">
          <mxGeometry width="50" height="50" relative="1" as="geometry">
            <mxPoint x="300" y="2197" as="sourcePoint" />
            <mxPoint x="620" y="2080" as="targetPoint" />
          </mxGeometry>
        </mxCell>
        <mxCell id="B7J31swfIntdvlFsxO-T-8" value="" style="shape=image;verticalLabelPosition=bottom;labelBackgroundColor=default;verticalAlign=top;aspect=fixed;imageAspect=0;image=data:image/png,iVBORw0KGgoAAAANSUhEUgAABAAAAAFxCAYAAADtW9pAAAAACXBIWXMAAAjbAAAI2wHNrPlDAAAAGXRFWHRTb2Z0d2FyZQB3d3cuaW5rc2NhcGUub3Jnm+48GgAAIABJREFUeJzs3XmclXXd//HX5zoDM4ALCuK+565o7u1ZeVe26F1StmgoOjCDmhTLYMs0dylzRgwLmTOSGlaaSZp2q6n93DK91VxySU1Nc09AwQWYgXOuz++PGU0MheH6nrnOOdf7+XgQEsPn+2Y4MOf6fDdzd0RERERERESktkVpBxARERERERGR8lMDQERERERERCQD1AAQERERERERyQA1AEREREREREQyQA0AERERERERkQxQA0BEREREREQkA9QAEBEREREREckANQBEREREREREMkANABEREREREZEMUANAREREREREJAPUABARERERERHJADUARERERERERDJADQARERERERGRDFADQERERERERCQD1AAQERERERERyQA1AEREREREREQyQA0AERERERERkQxQA0BEREREREQkA9QAEBEREREREckANQBEREREREREMkANABEREREREZEMUANAREREREREJAPUABARERERERHJADUARERERERERDJADQARERERERGRDFADQERERERERCQD1AAQERERERERyQA1AEREREREREQyQA0AERERERERkQxQA0BEREREREQkA9QAEBEREREREckANQBEREREREREMkANABEREREREZEMUANAREREREREJAPUABARERERERHJADUARERERERERDJADQARERERERGRDFADQERERERERCQD1AAQERERERERyQA1AEREREREREQyQA0AERERERERkQxQA0BEREREREQkA9QAEBEREREREckANQBEREREREREMkANABEREREREZEMUANAREREREREJAPUABARERERERHJADUARERERERERDJADQARERERERGRDFADQERERERERCQD1AAQERERERERyQA1AEREREREREQyQA0AERERERERkQxQA0BEREREREQkA9QAEBEREREREckANQBEREREREREMkANABEREREREZEMUANAREREREREJAPUABARERERERHJADUARERERERERDJADQARERERERGRDFADQERERERERCQD1AAQERERERERyQA1AEREREREREQyQA0AERERERERkQxQA0BEREREREQkA9QAEBEREREREckANQBEREREREREMkANABEREREREZEMUANAREREREREJAPUABARERERERHJADUARERERERERDJADQARERERERGRDFADQERERERERCQD1AAQERERERERyQA1AEREREREREQyQA0AERERERERkQxQA0BEREREREQkA9QAEBEREREREckANQBEREREREREMkANABEREREREZEMUANAREREREREJAPUABARERERERHJADUARERERERERDJADQARERERERGRDFADQERERERERCQD1AAQERERERERyQA1AEREREREREQyQA0AERERERERkQxQA0BEREREREQkA9QAEBEREREREckANQBEREREREREMkANABEREREREZEMUANAREREREREJAPUABARERERERHJADUARERERERERDJADQARERERERGRDFADQERERERERCQD1AAQERERERERyQA1AEREREREREQyQA0AERERERERkQxQA0BEREREREQkA9QAEBEREREREckANQBEREREREREMkANABEREREREZEMUANAREREREREJAPUABARERERERHJADUARERERERERDJADQARERERERGRDFADQERERERERCQD1AAQERERERERyYC6tAOIhGRzztyW3Mod8WhbjG1w3xZjY9xH4ozAbOO+D60Hhvb99xLAMVbg/jLYS+AvY7xIbE8R8U/cnob4797Usjid35mIiIiIiEgy5u5pZxBZJ3bOGTvhfjDuBwB7AXsCG5Z3VH8GeBDjPtzuII5v94nTXyrvmCIiIiIiIsmpASBVw87t2IoVfBKLPwn2fmBU2pnAHXgU5yai3LW8bjf65MlL004lIiIiIiLydmoASEWzOfk9yNmRuB8B7JF2njXzHrBbwC8j13O5N7YuSjuRiIiIiIgIqAEgFcjmnrU5pe6xwFFgu6WdJ4Ei5jeC/ZKG7st9bGt32oFERERERCS71ACQimBgFPKfwjke49PU2gGVxss4F4LN9aapf087joiIiIiIZI8aAJIqmz27nrplY4DJwO5p5yk/d4huAD+bpmlXO+gvoIiIiIiIDAg1ACQVNrdtKKXBEyD6NrBJ2nlScjfwP9407Q9pBxERERERkdqnBoAMKGtrG8yohvHgU8A2SztPZfDbMX7gE1puSDuJiIiISAh2fsf6rIhHEOeGE5WGU7INiWw47sPf/B42BFuv9xf4YJxhvf/Nv/8bwG0F5m/csrQcrBt8OcZLOItwFhL5Ijy3CC+9QN3GT3lj48oB/i2LVAU1AGTA2JzTP04U/bjKD/YrI7ueqPRtHz/9obSTZI0V8t998w2IvDuP7/Pmll+nHUNE5O3s3NM3ZWXdpERFcsWfeOOpLwSKVLPs7I4tqIt3JWYbYDuM7cC2xtgEZyQwAhicYsQi8BTwOOb/wKPHsPivDI7u9uOmvpZirrKzrvb/xqODEhXxuNubW34QJpFUmto6aE0qks2ZsTNR9FOi3MfSzlLZ/OPE0Z1WaD+bpXU/9MmTl67510gQzomYb5p2jKpgdjGgBoCIVJ4VuVMwn5aoRqkuAqaGCVT9bP78HIue2gOKB2O2P84ewO7kGI4b2Nt+QeXMK9YBOwI74gY4uEGPx1bIPwzcifEXYrvJm6c+nG7UwGL7JObjE9UwWwL8IEgeqThqAEjZWFtbHaPqJxFF3wMa0s5TJQaDfYthxS9aZ/tEb265Lu1AIiKydmxeWwNLh+4O4BOn3JN2niyx2W0bUNfQlLySj7ezzjrdTzllSfJa1c268k04HcB6YJX0cJ9EBOwB7IFzLOZYIf8kcDVwFd2Db/JJk5anG1GkvNQAkLKwc/J7M6rh58CeaWepTrYtxpXW2X4hdXaKN057Je1EIiLSy9ra6ths8M7EtgfOXpjtDoyGhh2I4hxYFxDgYVTWWl19E7BhgEobUN/TDJweoFZ1c7YAsrA9bntgIjCRhhXLrJC/HPPzmNByo25rklqkBoAEZWAU8ieCnw5Wn3aeqmf2NUr+YZuTP9YnTvtT2nFERLKk92ta+/a47YHZnhh74b47oxp2I+7b3/z2JdAy4GxeWwM0fDNYQedkm9f2Yx/b2h2splSLocBXcfsqhfwT5nY+MT/3E6c+n3YwkVDUAJBg7Cenb8rg3C+AQ/SOKCTbmsivtUJ+Bgu6f+StrXHaiUREapV1nrY1VtcKjAZ2A1uv90ua5gIr1vL6Y4DNg9UzNqW74VigEKymVKMdMP8ROb5nXe3nEZfavfk7z6QdSiSpKO0AUhus0L4fg3O3AoeknaU2WQ74Lps2XGNdbaPSTiMiUrNs0JbAOOAAsrH8uarZ/Pk5sMnBCzuTe2uLUI9bM1b3mBXyZ9vsjq3SDiSShBoAkph15k8AuxnYJu0sNc/5KF5/qxVmjk47ioiISOoW/uNIYKcyVN6Bl54YU4a6Ur3qgYnU+aNWaJ+mBpFUKzUAZJ0ZmHV1fA9jDune9Zoxti2UbrJC/jNpJxEREUmV2ZSy1XZaVnPRncgQsHYWPXGXndOxf9phRPpLDQBZJzZr1hAK7b/B/XtpZ8mo9YD5vasvREREssfO6TgU2K+MQ+xNV/6/ylhfqts+xP5/1tXxPTWKpJqoASD9ZjNnDqNhxe/Ajkg7S8bVYcyxQv60tIOIiIgMuNhbyj6GM63sY0g1q8P9f+jsuNIK7RulHUZkbagBIP1iZ7UNZ1jxD8DH0s4ib5qiJoCIiGSJdbYfwMC8FznE5sw4aADGkWpmfhjYHdZ1+p5pRxFZEzUAZK1ZoX0j6uuvAzs47SzyH6ZYIX9G2iFEREQGhNnAzcxbpFUAsjZ2wnN/7mtOiVQsNQBkrdjMmcPALgPbJ+0s8o6+aV3tP0g7hIiISDlZoWMX4L8HbkCOsHNm7D5g40k12xCz63Q4oFSyurQDSOWzWbOGMKz0e+ADaWeRNXA71QrtS72pRasBRESkNrlPwgZ0Esvw6BSgcQDHrEWvgL0K/hrwau83e+XfP+3LwbpX/SW+DKwHPAe2AcRDIGoA3wAYBGwIbARs3ffjSjCc2K+xwsyPedPk+9MOI/J2agDIu7K2tohR9ReAfSjtLLLWfmRdHf/yCVN/mXaQjLkbfH7aIcovejjtBCKSXTZnxgii6OgBH9j5us2e8R0/afrCAR+72hXjUeX+vNn8+TkWProFNng7zLfDfXuM7YH9cHYHcuUcfzVGQPH3dt6sfX3cpJcHeGyRd6UGgLy7TYZ0gOu0/6pihsddNuf0533iqdennSYzjAd8Qks+7RgiIjUtisYDQ1MYeQh10XjgRymMXd3qRywp9xA+ZkwJeKbv2y1v/TnrbFuPqH5/PDoM/HBg53Ln6Rt5W1b0/NzgCAcfmDFF1kxnAMg7skL7BMxPTjuHrAsbRJT7tZ1zxk5pJxEREQnB5rcNBiamGKHZZs+uT3F8WQfe3Pq6T2i5yZumTvWmabtgpb1wP5vebQhlZp+nq/1b5R9HZO2pASCrZYWOg8Fmpp1DEhlOHP/OZrdtkHYQERGRxBY1fAnYIsUEm1O3/KgUx5cAfMKpD3pzy0l495Y4U4DF5R3QZtjcGbuWdQyRflADQP6DdZ6xGR5fDAxOO4sktjN19ecbWNpBREREEjol7QDgFZBBQvDm1te9edpM8B2BHwPFMg01iFLUUabaIv2mBoCswtraIiz+JWZpdtglKPs8ne1pLpkUERFJxObkPwzsl7DMcwGi7GOdHYcEqCMVwptaFnvTtG9jfiDGPWUa5nM2p+PjZaot0i9qAMiqRtVPAT6SdgwJzJhhhZmj044hIiKyTiImJaxQJOIzwOuJs5gnzSIVyCe03MuL3Qdh3lmWASI/UysypRKoASBvskL7fsD3084h5WD1ULrA5rU1pJ1ERESkP2zuGTsCn0tUxLnMx0+7D7ggQKTP6JDd2uStrUWf0DIR5xQgDlx+bwrtWgUgqdM1gAKAtbUNZlTDecCgtLOUw7BBg9h1+Iiq67q+sOw1nl+6NNTVMXvQXf9d4LuB6omIiJRfsXQyZsnucff4xwBE0U+I4yaSTYJFxPE3gRMTZZKK5c3TfmKdHSsxnxO2ctQI/L+wNUX6Rw0A6bXpkOm47552jHL55l77Rz844IPJ3jwMsIseeyg+6c9/LAUt6vYt62q/1Ce03Bu0roiISBnY3PyGmB2bsMqtPnH6HQA+fspjVshfC3w6YbSxVmj/nje1lPcEeUmNN0/ttEJ+RyDgNX5+uJ17+qZ+/Kkvhqsp0j/aAiDYnPweuE9JO0e51OdyTNjjvVXzWl/S080x119ZGnvDVaXXVqwIXb4Op2BtbWr+iYhI5SsxDlg/UQ3nx6v+2H+aqF6vYbidEKCOVLIF3dOAuwNWHMzK6JiA9UT6rWoeiqSMcvyEGr7y7yvv2S3abOiwqlj+f8NzT/k+888vXvz4w6H3nb2F7cumDXrTIiIiFc3mz8+RfJn9k2yy/RWr/D/NLdcCDyesC8bJNnduTW6dlF7e2lrE7WigO1xVOyxcLZH+UwMg4+ycjiNxPpx2jnI6aa/9K/513l0s8t07/1Q67Kr5xYB7/t+Z8wOb2zay7OOIiIisq4VP/jewfcIqs3zMmFW20zk4xuyEdQG2JF78xQB1pIJ589SHMQoBS77fZs4cFrCeSL9U/IORlI/NmjWEOJ6Rdo5y+tQ2O9heIzap6Nn/hxYv8g9e/qtix713xLGX/9m/z0YU6783UIOJiIj0m3FKwgqL8e6fr/Znou4LgJcT1ofYTk5cQypfHHUAywJVG8zQ4ocC1RLpN+0DzrKG7iaItk07RjmdMnr/ij34z93p/Nu98bTbbyqtKIU962+tGI12zhln+/gpjw384CL9Z3PbhlIcsi3OFlg8ksiG4z4coo3A1wPrXYprPhinDmwZHndj0XI87gZbTORPE/Ms5J7x5in/Svm3VDVsbn5D3Hai5JtjvjkWbY4zBPfhmBn4ULBueq/NegXiIm4vYv485s+DPceInud9TGvwg02kNllX+3vBPpCwylxvbn19dT/jja3LrJA/H5icbAh/nxXa9/OmlpD7xKXCePOUf1ln+/mYBbr5IfoEcE2YWiL9owZARtnMmcMYFgU81bTy7DVipB2yxTYVOfv/7NLX/Lgbry7d9NzTAzbl/58sRxxPB45LL4PIqgyMzvYdIRqN+a6Y7Yn7bsC20LAR5mB9H+l93/PGXyNf5TtwMHvL94Bb36+PsUJ+OXAvxl9w7gS/3ZtanhiQ32gFs8629aD+g2AfwdgXY3ecrXo/j9D7ue/7JBv8x+f/jZ9482P7PveLGmIr5P+F21MYT2P8DeIHiXL388KyJ721tYxnn0jVie1Ekn0FX0mRs9/1I8zn4DYJSDZZ0PtQmPCmAql4kV+MB2oAmO8dpI7IOlADIKuGFU8GG5V2jHL69t4HRWaV9/x/2ZOPxk03X1ta3BPwPJl15l+xuTM6vHH6I2knkez598M++2HRfuD7AftiNvzfD/Nl7ZENAd6P8/43Elmh40E8vpQo/q1POPXBcg5eSezsji2o40jcx2ANB/PW9wfh/ggiYAvMtwDe92YDpxTDqIbXrbPjAfD7gbupi2+p7n+X4q2s0P6JtFO8qdhzp5/U+mraMdaWzT1zJMZXEpb5jZ809dl3+wCf0PJPK+SvAL6QaCTnKJt75hRv/PaiRHWksr244v8Y1fACsHmAajsHqCGyTtQAyCCb2zYUGmp6z9oWw4bZkTvsUlFnXLyyoptT/nx96cLHHqqgWS7LUWQamrmQAWLnnr4pK6PPgX0K+BhmG/X+TIqLYVbhe/auOsi1WiF/H3gnS+su9MmTl6adLDQDo+uMz0B8CjkOwVM9F2g9zN8HvA+AUkTvagG/nsh+z8rua6rpARbss8Bn007xplz9gcBf0o6x1uLi8fQ26BLUiGat3QdGP4U4WQMAGvoytyesIxXMW1tjK+SvIcx7pq1s1qwhPmnS8gC1RPqloh6QZIAU68cCI9KOUU4n7bV/NDhXOdv/b3ruad/nkp8XK+vhv4/xJev88dZpx5DaZvPn56yQ/z0rc8+C/Qz4IrBR2rnWYG+wcxhWetYKHR1WaK/0vGvF2toi6+o4mkL+b3j8vzgfpzLfD2yG2ddwfkNdw0LrzF9nZ89MeiK8VDhra6vDaUpY5kafOOWetflAb5pyM/DXhOOB09R3baHUNLs/UKGIhtJOgWqJ9EslfsGXMur74nRS2jnKaf3Bgxm36+iKeG33lHqv9/vUVZcUn1v6eqVMcb6NDSJaGehQG5HV67uGa9Wl5dVjOPgUsMeskJ9obW3V+HsAwDrz72dUw+24/wLYLe08/TAY41B85WoPdJMasmn94cA2yYrYWf36cLd3Pytg7WzDS//4fIA6UtHicFvDvFTTB3FL5aqIhyQZQC8/cRhmO6Ydo5yO23V0NLy+Ie0YPLz4Jf/QwF/vt26ccbqTVgZAtd84MQI4m1ENd9mcGVW1f9Nmz663rvxZGH8GDkg7zzp6wk+avjDtEFJmnnSSwp5h5PZX9euXLIsuBpJvMQl1QJxUrmIU7mwSY/1gtUT6QQ2ArIn9+LQjlFPOjIl77pvq69rdOe+R++P3XfbL4l8XLazwJ/83bcCw+Mi0Q0jNezztAIHsTRTdZV35L6UdZG3YnBk7U7fsdpxvQsJz1dN1Z9oBpLysMHM02EeSFeFnfSuO1lrvGR92UaJxex1ic/J7BKgjlaonWhyslhoAkhI1ADLEzu3YCvivtHOU0xd22Dnabv0NU3uD++LypX7ENZcVm26+trSsuDKtGOsoHpd2AqlxZrXSAABYH+c3Vsh/N+0g78YKZ3yEKPo/YJ+0syRnd6SdQMrMSkln0FcSFc9dp18Z288Sjg1gREwMUEcq1eTJy4B+NZjema8Xpo5I/6gBkCUr4mPBavqAmm+O3j+11/Tvnnw03ueSnxf/8PQT1TLr/zZ2sJ0zY/e0U0gt82rfArA6P7TOju+kHWJ1elcoxNcCG6edJQh3rQCoYXberI1xvpasCFd446kvrMsv7Ts08O5E4/c62ubmNwxQRyqQ915Z81qYapEaAJIKNQCyxKiK5arr6kObb20HjtpiwGf/X13Rw8Q/XVf68nVXlF7qrvLbXOLoy2lHkBpWWysA/s38R9bZPintGG9l58w4DOdXQH3aWQJZSc/ge9MOIWW0omccMDRRDfdzEv16I8QqgPUoMjZAHalcYd5rxnFNT8pJ5VIDICPsnPzeYLuknaOcJu19wIC/nu948Xk/6NILij97+L7Ku95v3agBIOVjNbkCoJfZGVbIfzrtGAA2Z8ZBxNF8YFDaWYIxHtB92bWr94Yia05Y5lGaWq5PVGFl96+BpQlzgNFs1X3ehry7MDP3FmolgUj/qAGQFTE1fcDbThsOt8O22WHAXs/FOOZHd99W+ugVFxX/8eorVbrkf7V2sK7296YdQmqTN057BajVU9xzwEVW6Ei10WpnnTWcyH5D0pnUSuNo/38tW/Tk54DtEtUwn9u3PHud+UmtrwIXJ8rRa2c62z8ZoI5UGJs1awi9/94HKGa61lRSoQZAZnhN3017yt4HRpENTLP970te8g9e/svi/9x1a1yq9Ov91kn02bQTSE2r3VUAMBz8F9bWlt7X1vqeAljt3S2t/f+1zT3p7H83JZ8XIgpxHGIbABhNQepIZakvhjvfwbUCQNJRl3YAKb/e0/9tt7RzlMvGDUP46nt2K/sbbnfn/L8/EE++7YbS0pXVdsJ/P7h/Cvhh2jGkZj0OvD9QreXAYqD7LT/upnf2ux7YEBhOqNmatXMgoxqagDkDOCYAdk7HocBRAzDUK8DfgL9jvAr++qpvZKONAHDfBPOReLQJ5psD27CuEw85NQBqlc2ZsTNR9ImEZS7xidNfCpHHJ06/wwrt94ONTlbJPmOzO7byk6Y+GyKXVIiouCMe6i2nVgBIOtQAyIIV/ula3ok2cc/3RsMGDS7rGAuWL/MJf7q2dOU/H6/FKf+328+62kb5hNYFaQeRmrS2KwCKwD+AB4GHcZ4mFz+H+9PUsZDl6y/xk07qWVMRm982mAWDt6OO9xBH7wM+ChxEeffHn2bnnv5bP/7UF8s4xiqsrS1iVEO+TOWXAtfi/r9Qut6bv/PMuhSx2bPrqevZBY93xvx9wAeA/Vjze5FX+deKR9ZlTKkCUTSepPvlo7grTJg+Fv0M99kJq+TIxccDPwiQSCpFnNsVC/RWMPaXwxQS6R81ALLA/NBaPYumPpejcfd9yjr7//t/Ph5PuPna0qLuZeUcppJE0PAxwuyDFFmV8fhqdunGwCPgfwH7C2Z/YeWQ+9bmAX9NfEzrCuDRvm9XA1jnGZuBj8MYD7510jFWY0NW1k0CWspQe/U2rf9vnNDnd/wDfCbd9ReEOICv78/z/r5vvwWwmTOHsZ4fgseHAZ9mdfvAjb94a2u1HbS6EHg67RBvynnyg+3KwGbNGkJD4hPz7/Px0/8vRJ43eXwhWAcwJFGdyMbZ/Pk/9DFjAt0bL6kzwp3zYtGjwWqJ9IMaANlwcNoByuXonfeINh0yrCzdjWXFlXz/zltKP33g7mp745mc837UAJByMHuc3rMzFmBcgfM7it239h2+NSC8ecq/gNNsftsZvNQwDue7wBaBR5lgs9tOH7DfV2zjw/V57RmM6YzY/uJyP7j45MlLgSv7vmGdHbsRxYeBfRVn394Pqsbl/3apN03VHvA1aVh5FLBxsiIedvYf8KaWxVbIzweOSVaIrVj05GeA3wcJJhXAPxyo0Ct9X4tEBpwaADXOOtvfg9lmaecoBwNOHr1/WWb//7LgBR97w5Wlx15ZkoUl///J+UDaEaRG2fKHYOiHGbndbWnPivWtDihYof1i4CdgRwcsvyGD6k8AzgxYc7Ws0L4DZh8PVG0+9Yzz46amcjiVN099GHgYONMKM0dD6dtgt6aRRQaCT0hY4DXqowuDRHk752dYwgZAb6FG1ACoCTZ7xibURQcEKvf3QHVE+k0NgFoXRe+jJk+qh8O23dF2HT4i6Ox/MY456/674ta/3FJaGWdv4v9Nxh42N79h37VtIsF4Y+sy4Ja0c7yVN7UsBo6xQv4vwFmEuiHH7WsMQAMAt89hQTL/nKap45JepRaKN02+H/hG2jmkPKzQvh/YgQmrXFiuZpU3T/uzFfIPA0kPUf6UzTlzW5/47adC5JIU5aJPE+wGNVcDQFKjawBrnu+XdoJyOWX0/kFP9n7qtVf80Ct/Uzz1jpuz/fDfK6IU75N2CJGB5E3TZuMcS7gH4Pfa3DN2DFTrnZknPUEdjHsY2T2hUh7+JQss+RaJiPMCBHln5iHq54iKxweoI2kzawxXLLonXC2R/lEDoNY5e6UdoRz23WSUfWSLbYLN/l/02EPxe+fPK976wrN68/sGt5p87Yi8G2+e9gvgtGAFS6Ujg9VaDWtri8CS70n16Ft9WyJEys7OOms48JWEVR708VPvChLoHdX9Egjx9+I4a2vTqtsqZoWOg8HDbY90rg1WS6Sf1ACofXumHaAcJu19UJDX7qLu5X7ktb8rjb3hqtLrK/Xed1VWk68dkTUaucMPgu07Nzs0SJ13MnK9rYENkhWxB71pys1B8oisjcE93wCGJqph8bwgWd6FT5i8APjfAKW2YNP6zwWoI2lxvhew2tN9552IpEINgBpm53dsAWyUdo7Qthy2nn1h+50Sv3b/+MyTvv9v5xV//8/HM7/ef7WMPdKOIJIGHzOmRGTHEmLmzznY5s4dlDzVO6gr7Rygyh8C1BBZK9Z7hm/Sw/+K1MW/CpFnLYTZZuB416/yAAAgAElEQVQ2PkgdGXDWlT8K88PCFdTsv6RLy5FqWbfvEO5aqMrxzdEHRIOidd/+v7y4ku/deUtp9gN3x1rv/662TztAVXE+Z4V8mZejDqAcX/DGaZVzj/kA8/FTHrNC/jwg6T7lYcRL3guU5yo79x0S1zAeCJBEZO10tR+C2a4Jq/zBjz/1xSB51mTkDtex6MlnwLdOWOlQO3vm9n7i5CeD5JIBYeeevime+2nYqq6mq6RKDYBaZmyXdoTQ1h88mGN33XOdZ//vXvgvH3vDlaW/L1msZ/81G2Wdbet5c+vraQepEiP6vtWGlXFD2hFSF9fliYrjSb5a7kDK1wDYgKSdXiu9FCaMyNoIcPif27zkOdZyqDFjStbZPg+zpEvAI3LFE4BTQ+SS8rO5bUMpNVwBbBKw7EusHHZ1wHoi/aYtALVtu7QDhHbCbntHGw7u/3NJyWNm/vXO+CNXXFTUw38/5AZvk3YEkbT0Xdv1x+SV4qTXiL0LWy9xiTinyQAZEHZ2xxY4hycss4hNll8ZJNDaiut+DgTYLmjHlnVLkARjbW11FBt+BRwUuPQv/aSTegLXFOkXfdGvZeab47WzB6Auijhxr/3WqWnVUypx5I672JE77jKgr/mSx3Tce0f880ceqM5zBkq2FfBQ2jFEUuM2H/NPJqxRzgbAkOQ398WbBYkisiY5Px5I9gDsftFA31jhJ05+0gr5G4CkV25uRnHJ4cBvA8SSMrHzO9ZnVMNvgE8HLl2kFHo7gUj/qQFQyzzokqXUjdlhl2irYeuvU0djaN0gtlt/wwHthjzz+qt+/E3Xlv70/DPVvOKgdpa0i6yLOv8jpcRVku53fhe+PHkNUwNAys7a2iJGNYxLXMhzFwSI03/GeXjiBgDgjagBULGs0L4D2KXAPmUof4nOgJBKoC0ANc1q6uHtpHWc/U/DZU8+Gu//2wuKVf7wD2oASMZ547SnMZ5NWGbTsi37dZYGqPLeADVE3t2mDYcCCbeV+f0+cco9QfL0V0P35cDLiesYH7ezZ+qQ3QpjbW2RdXWcDHY/5Xn4X475d8pQV6TfquaBStbJxmkHCOWjW25j+4/avOL3Myzp6eYb119ZOuq6K0qLe7rTjpOcWc28hkTWmfO3hBUiViwpz4qsiFcCVPmYzW1Ldie7yJq4BZj9Z17yIOs49NjWbtxDXD0YkSsdH6COBGBg1pn/HKMabsf9J8Cwsgzk3uETWv5Zltoi/aQGQC1zr5k3dKeMPqDiX6s3PPeU7zP//OKvH3+4Ovf7r1btvIZEEkjaAIC6eNMAOf6T2RMBqmxAPOS4AHVEVsvmnjkSPOnhfyuJ6i4MEmhdWd15gSqNtbY2bcNNkZ3fsb4VOo6lkL8H4/fAAeUbzZ+irqejfPVF+qfiH6okAWNw2hFC2GX4Rvaprbev2Ndqd7HId+/8U+mwq+YXn1+6tNqX/K/KrCZeQyKJmCdvAMRlOpPF48fC1PHTrat9uyC1RN6uVPo6JHxPYlztEyYvCBNo3XjT5Ptx7gpQagtGNnwmQB3pB+tsW8/m5A+3Qvs8evwF8PMpz3L/t3Iib/bG1mVlHkdkran7WNOsJq6ambT3gVFklbn6/+HFL/kx1/9v6b6XFtbWg/+bvD7tBCKpK0VPESX8K+42JEyYt3mx52lGNSwBhiestD7OPJs791BvbFwZIprIWwRY/m/zkscIwPw8sP0T14k4AbgieSB5JzZnxgjMDiCKDsD9o1jDB3snxwb0PeVpPn761QM5oMiaqAFQ26q+ATBqyDC+8p7dKm72393p/Nu9ccvtN5V6SsmPCK9YXhurSEQSsfjVxG8YzRvChFmVt7bGVsjfBByRvJp9hNLii23u3KPUBJBQbM6Mg4iiPROWWUhu+FVBAiWVs19T4kwg6Ra5T1nnaVt783eeCREra+z8jvVZyoZENooo3hRnE4xtgO0wtsPZgSjqPWzR05qjsWtYsLw1pcFF3pEaALWt6t/ANe+xTzSkrrL6GM8tfc2Pu/EPpRufe6pGZ/3fwhjQu5ZFKpL7KyRehWTlW03j9kfMAzQAAPgCpcUX26xZX/dJkwJcMSiZl4vGkfyr5cWV0pTyxmmvWCF/GfD1hKVyRIOOA9oCxKps8eLbrZBf11fBRn3fD6e3E7sBkAP6nmL6yr71n+jKeHf2GIMHfc1bp9bQuVBSK9QAqGm+coCXOQXVkKvj+N33qajZ/8uefDRu/tN1pZe7s/K+2HrSTiCSOqt7FRK+hzMv32qaUmk+ddGZQKhVBl+gYcUDdk5Hk4+f+sdANSWDbObMYQzjqMSF3H8ZIE5AfgFY0gYAOONs/vwf+ZgxNbyUEHD2TTvCgHIeIbaP+7hJya+NFCmDinq4ksC8umdvv7HLntGoIUMrooPx6ooejrvx6tJR112RoYd/wL2qX0MiQZSWJT+8yct3kImfNH0h+PzAZXck9uuskL9Qd5bLOhsWfwlYP1EN5xFvbvlLmECBLOi5AXg6eSHfmpcf/2TyOlI57EEGlz7qJ059Pu0kIu9EDYBaZla1J44acOJe+1bE6/P2F5/zAy+9oPirR/+WwWVc1fsaEskUizuAcswifpVc6e9WyJ+rRoCsg+SH/2G/Sl4jLG9tjbFAqxLi6IQgdaQS3EEud4gff+qLaQcReTfaAlDbFqUdYF19drv32C7DR6Q6+78yLpG/947SaXffFpdSO0AmdS+lHaBqGPN8wrRj046RNQbG7BkjyeVGgo/AbCQeD8H6Zh3dhmC+vO+DXyK2FzF/niE9z/vY1u40s4fkE0590Aod54E3lqH8IGAcudIx1tl+CRad7U1Tby/DOFJDbO6MXSH6QMIyThRfGCRQaJa7AI9PJfley8/a2R1baMa4qjnwE0Z2T/MxrVo5KRVPDYBa5rxcrUcATBq9fy7N8R9Z8pJ/4/orS/cuWpDZJ38A3Ku2iSS1xebOHUT88p7E0b6Y7wn+HrAdge2pixr+feqTs8qBffbm//R+yBs/Xt6AFfIvgz+LRX/D4/vA7sf8YSa0POWVcoxUfxRL3yUXHY6xaZlGGITZ18C/ZoX83WBz6B50sQ4LlNUq5Y5L/NfIuMUntPwzSJ7AfPyUx6zQcRt40iZHHTkfC5weIJYMvCVgx3rT1MvTDiKyttQAqGWRL8KrrwOw/6jN7IObb51KcHdnzt/uiU+9/U+l7lIxjQiVZnHaASSbbNasIQxd+UFiPg5+CLAP2GDsjQeKIP9EbAy2Me6jwb4CgBsU8q8bPIzzABF3Ujf0ocSHAA4AP2n6Qus643g8/j3lPwF2P/DzaVgxy7ryl0B8gU+YfmuZx5QqYXPnDsL9mMSvwpiKW/6/qngeWNIGAMDx1tbW7q2tlf8Pjfybcwl1TPHGqQHOgxAZOGoA1DK3F9KOsC6+tfeBqez9X7B8mTfefE3p6qf+UX0zf2UT6X5iGTA2a9YQ6ns+j/FVGuy/iIOdat9f6wEHYByAc1w1PPy/wSdMudIKHR3g0wZoyA1xToDoBCvkHwUuoGTztJw54+KXP4tZ0pUo3ayoD324ZVjFnkuoa/gJMDRhpe3ZbMjHAd26UR3uhmiSN0+5Je0gIuuiIg5ZkzIxezLtCP21zfrr2xHb7TTgr8vL//lYvPcl5xf18P82yyJ1taXsrLNjN+vKz6VhxYuYXQz2ecJdaZc9TVOng/0mhZF3Bk4j509ZIf87K+Q/bW1tep+RRW7JD/8zrvRTTlkSIE3Z+Emtr+L+uyDFYnQYYMXz+zE7hgXdB3qTHv6lemkFQC2L/alqOwPgm3sdENVFA/d+8bUVPbTcfnPpZw/fVz1TfAPFeNEnT16adgypXdaZfz/GqRiH4dX2r1XlcnDLDT+a0hLAv5xChDrgCOAIRtU/ZV0d51HkPK0KyAabe/rmkEt+tZ1bmFP2y82YB3wteSH/vM2ZMcInTtfhu5XFgWvAf+xNLf8v7TAiIagBUMvq6v9BqSftFGttg8H1HLPLHgP29H/ngud97A1XlR5/ZYlm/VfHvepWkEh1sLn5bSiRx/gy5d+rnkne2LjS5s//GoueWARMTC+JbYv7/5Dj+9aVv5xSPNMnTr8jvTxSdqXo6yR/f7mIkcuvCRGn7Bb03MCoIc+Ab52wUj1R9FVgdohYktijwCXk4gu9cfojaYcRCUlL82qYN57yAlV0jdv43feONhxc/lW/xTjmR3ffVvrI5RcV9fD/buzBtBNIbTEw62r/NiUeAY5CD/9l5WPGlLxp2omYjwPSvvKwDudIouh2K+RvsULHEdoeUKtsbPISfkm1XKfmra0xFv8iUDldJZuuh4DTidjHm6bt4k3TvqeHf6lFWgFQ+x4EPpJ2iDUZFEU077lv2d8MPrrkZR9741Wluxb8Sw/+a+KuBoAEY3NP35xi7gLMDk07S9b4hJbzrTDzLij9Atg77TzAB8E/yKiGx6zQ/mOG9Mzzsa1pNygkAJsz4yCiaPfEhTyqjuX/b7DcBXh8Ksmbmu+1zjP28eYpfw0RS96VAw9jfhPYzcTRn7x5yr/SDiUyENQAqHXGA3jlNwC+/J7doi2HrV/W2cCLHnsonnjLdaWlK1eWc5jaYf5A2hGkNljnGftguT9gbJZ2lqzypsn32/y2A1lYfypm06iMQxZ3AiuwvOH71tl+BnU953hj67K0Q0kCUW5s73NVIo/RNLWqton4+CmPWaHjNvAAVwKWjgW+mbyOvMUrwN9wHsB4AKIHGVz3gI+b9HLawUTSoAZArXPuSTvC2vjm6P3LNvu/sHuZj7/52tKV/3xcs/5rLyYX3Z92CKl+VjjjQ1j8v8CGaWfJur4l1T+wQvsvMPsxzuFpZ+qzOWY/Jm74lnW2T6W55WIP8BQpA8vmtTVAw1EBSv2qKv/83S/ASN4AMPuazZ491U86qXoOcUrPEmAxxmJgMc5C4HnMnqLkT0H0DHHxGT9p+sKUc4pUFDUAap7fVunbbD+x1Xa294hRZQl53TNPeuPN1xSfX/p6OcrXLucBb5z2StoxpLr1nfJ/LTAk7Szyb97U8gRwhBU6Dgb/IfCJtDMB4GyF2UV05SeY+7F9OaVadDccAQwPUOnrVsh/PkCdgWXB/p0bQW7554DfBqqXvjg+mMiK614geh3i3uWbg+KlrIxW0NSypCobRSIVQA2AGudNLU9YV/4FnM3TzvJOThm9fy50zeXFlXzvzltKP33gbl3vty4ibk07glQ3O3vm9uT4HXr4r1jeNPV24NDeLRreBP41YFjauXA+DHafFdoneVPLuWnHkbXkjA1UaadAdarZsdRSA2DQiHu8sVH7L0UqhE7gzYKY29OO8E523WhjO3Sr7YLO/t+14AU/4NILinr4T+S2tANI9bLOtvXIla4ERqWdRdbMm6f81ZumjifHlsDJwMNpZwLWA/uZdea7bO7cQWmHkXdnszu2olJWktQC80/a2R1bpB1DRGqTVgBkgfkfwf477Rir8+29D4rMwjz/F+OYs+6/K279yy2llbGe/ROIofumtENINaufASQ/CXztLKD3tpMnged6f2zP4b4I8+XE1k3kywHI5YxS6Y0lyhsR+WA82hr3bcG2BbYDdgFGDFD2itK37We2wdl0dnyUyJv7zglI7wHcGE9p8U7W2Xa4N7dqL1elqvNjgOCr+TIs1/c5bU87iIjUHjUAssDq/4BX3nW6o4YM48s77hpkFcrTr7/qY2+4qvTnF57VfrDE/C6f0Log7RRSnWxO/sNE1lzGIVYA1+J2BXF0g584+cnQA9jc0zfH6/bEfT+cI4ADqfTDVAJycJqn3gjcaGd3bEEdJ+B+ArBlSpE+BkOus7POOsxPOWVJShnkHVjv341vpJ2j5jjHGuS1z11EQlMDIAN8wqTnrJB/iIGbkVsrJ+61b66hLvlL8KLHHopPvOWPpddXVl6Toyo516YdQaqTtbVFjGroohzby4xncf8pcK43tSwOXv8tvPHUF4AXgD8C7TYnvwcRD5ZzzErlJ059HmiztrbT2LT+cNxOBD464EHM30d9z+9s7tz/0l7iCtM14/0Q7Zx2jBq0M10z3s+E6TqTR0SCUgMgO66gghoAQ+sGccJueyd6SFjUvdybbr4mvuKfj2u9f1C5/007gVSpUUM+D75b4KqLcH7EyO5C3zV2Ay/ufoaoIZWhK4W3thaBS4FLrev0PfG6ieBHM7CHBn6U0pKfAk0DOKasiefGapK6TDw6FnQor4iEpUMAsyJXWafJjt1lz2hEw7ofDn79s//0/X87r6iH/+Ae9eYpf007hFQrnxK2nl3DoNKe3jztJ6k9/Mt/8AmnPuhNU5vIsSXu3wJ7ZiBHt0JH9V0RV6NsbttQ8C+lnaOGfclmzkz/Zg4RqSlqAGSEN057ALwSTnYmMuPk0fuv02uvu1hk8m03lA67an7x+aU6D6oMLkk7gFQnK8wcDbw/WEH3n7Jg+Wf8+FNfDFZTgvLGaa94c8sscsN3xP1YnEcGaOROm922wcCMJe8qHvJFQH8W5bM+w+Ij0w4hIrVFDYBMsflpJwA4fLv3RDtsMLzfB2r97eVF/oHLf1n86QN3x1psWCZeGa8RqUalcLOybmd6c8s3vbVVK3yqgDc2rvTmlnks7N4Dty+C31/mIbckVz+5zGPI2nAfm3aE2hcfm3YCEaktagBkiQ3+OXgp7RiT9j6gX6+72J05D94TH3TZL4oPvLRIz/7lYvyfN0+tiFUiUpU+G6jO5SxcPjVQLRlA3toae/PUy1jQ817cjy3r1gCzk+2ss4av+QPXQVwK8XWm5s9YsjlnbksaB0Jmjn3YCu07pJ1CRGqHGgAZ4hMmPYdZqie8HzBqczt40y3Xevb/mddf9U9eeUlx0q3Xl1aUUu9d1LaY89KOINXJCu0bAQckLuS8SK7uBM38V7feRkDLPLoH7YIxHVhehmE2ZHDP8WWoC9Qlv2XABvRwxHRY6evofeRAMCw6Ou0QIlI79A935kTnpjn6lPcetNavucuefDTe/7cXFG9+/mnN+pffKyzLXZp2CKlWuT0J8fXE/Pve+O1FyfNIJfBJk5b7hGntRNHeGH8KPoB5eR6KPA5wzaAPTV6jwpkfk3aEzHA/2qDfWydFRFZHDYCseXHZ1cDjaQy9/QYb2Oe23XGNr7lXVnQz9oarSkddd0VpcU/3QEQT41yfPHlp2jGkSlkc4orRV1lad2GAOlJhfPyUx3ix+5DeGwMohqtso63r9D3D1esTWfKMXtsrAOycGe8Ddk47R4bsSOGMD6YdQkRqQ83vUZNVeWtrbIX2n4L9dKDHPmX0gVHO3v35/8bnnvLjbry69NzS1zXrP2B8JXXRnLRTSBVz9khexK5VE6p29W3rmGVd+YdwLgcawlSu+xjwYJhab4hXJp5sdavpBgBx7hgI8mX6KrBlIQpVJHPD+SJBZu/9GOCW5HVEJOvUAMiiXM8vKDV8Hxg5UENuVN/A0Tvv8Y5P/93FIj+657bSzL/eGceuZ/+BZb/x46c+m3YKqWa2WeKHAfc7w2SRSuYTpl1rc/JHEfE7QjwUxf4BIHBDO/c6JDyGwmp3C4DNnl1PnX85QKknaZr2OQ/USahUVsjfSpArUn2MzZp1sk+aVI4zNUQkQ7QFIIO8sXUZ+E8GcswJe+wTrTdo8Gp/7uHFL/mHr/hVsePeO/TwP+C8BJZPO4VUvfUTVzB0A0VG+MRpVwCzghQzDgxS562GLlsSoEryvxOVqm7p54GNEtcxv6jWH/4BMPt1oEobUt9zRKBaIpJhagBk1dK6szFeHIihBudyNO2x73+81rzver8DL72g+NdFC2v/TUBFsgu9aerf004hVS9AAyAO8dAl1aLefoAH+Rq0lc2dOyhAnTf52NZuIOkBNFvU8KFtYQ7/M78oSJ1KV1ecD4S5xsgiHbwoIompAZBRPnnyUjw+cyDG+up7dos2GzpslTdCzy19zT911fzipFuvL/Xoer+U+EoG5U5LO4XUAk++39mi1wMEkSrhx019DeOcAKXqWPHqVgHqvF3ShlQD554+KkiSCmJdM0eBfSpAqXt9/PSHAtSpeH78qS8C1weqdqjNPX3zMLVEJKvUAMiyISu6cH+y3MOctNf+q7zOLnvy0Xi/315QvPG5pzTrnyazc/z4yWX/85dMWJG4glt9gBxSTaL4N0Hq1K3cIkidVVjy6yhLtkOAIJXF468S4vwo84zd+GEXByqUo5j7WqBaIpJRagBkmI9t7caiaeUc45PbbG97jdjEAF5d0cPEP11XOuq6K0ovd+sMm1QZL1OKNfsvoQQ4vT9eL3kNqSZ9M8ALEheKy3LifvKDUT3aJ0COCuPfCFAkphiF2hdfHXJ+Gcm3lfQyC/FnICIZpgZAxnnT1MuB/1eu+qfstX8O4I4Xn/cDL72g+LOH70t4tLIE4f59nzj9pbRjSK3w5A0Aj7YOEESqjfFI8hpR+BP3zZ8JUOW9AWpUDCvMHA0kb2oYN/qJU59Pnqh6eOO0V3D+EKjanjbnjH3D1BKRLFIDQMDt2+A9ocvuNWKkfXiLre1Hd99W+ugVFxWfePUVLfmvBO53MXLH89KOITXEoteS14h3CpBEqo2TfKm9x+G3j3iIFQB8JECSyuFxmAPo3DK2/L+PebhVD7lAfxYikklqAAjePPVhnI7QdQ/bZkf70OW/Kv7PXbfGJV3vVymKkGv2MWN08qKE4/E/k9ew9yUPIlXHKSauEeUCbEH5D08EqLGznT1z+wB1UmdtbXWYh9h73t23HD57uuuvBJI3SwGcr4S+/UJEskMNAOm1sCcP/C1kyZl/vTO+Z+ECPflXEvOZ3jzlr2nHkBpjPB6gysE2c2Y59nJLZUt+n7wHeqh6K/MwXw+j0pggddK22eD/AjZLXMe40hunvZI8UPXxSZOWg18eqNwoSks+HaiWiGSMGgACgLe2rsD8OEKc5t1Hs/4V5yGW189IO4TUoJKFaAAMZWjpiwHqSDUxdklcwwn/QNnQ8zAh7m43xhnYmj+wwsU5Lf8PwgIefujaBiAi60QNAHmTT2i5F/fWtHNIWXST4+jeGQiRwBoGPwgkP+Az4pvW1qavSxlhne3vAbZJWMZp8H+EyLNK0bGt3UCIujtT6Dg8QJ3U2FlnDQcP8XtYzMjlVweoU71yG/0/CHDuRa/P2nmzNg5US0QyRG+0ZFULe2YBN6QdQ0Lzqd447YG0U0ht8nGTXgbuT16Ifdl0iO64zoqIsQGqPO/HTQ2/BaDXrYHq/NDa2uoC1Rp49d1fAhqSF7L5PqY12CrDauSNjSuB+YHK1dOz8qhAtUQkQ9QAkFV4a2uMdR8D/lzaWSQQ90u8qaUr7RhS44wbg9Rxn22F9h2C1JKKZV2nbYnbiYkLOQ8FiPMOtf3aQIX2ZJP674aplYYozFLz2DO+/L9PzMXBapm2AYhI/6kBIP/BJ7QuwKIvl+NqQBlwD7KsbnzaISQDnD8GqrQh2DXWedrWgerVPJs9u94K+auts32szc1vmHaeNbF5bQ1QdxGQPGtUxhVr9fV/JMQ5AABm37HOji8EqdXfodva6vq2W/T/13a2vwf8/QFiPM2i7j8HqFP9FnX/GeyZQNUOskJH8nM0RCRT1ACQ1fIJU+8EJqWdQxIwXiYXjfHJk8txRZbIqhZ0/xF4PlC1nbBBt1rhjA8Fqlfbotf3AT6N2c8p8S/rys+3rvb/ttmz69OO9nZ21lnDWd5wOc6Hw1QMNUu/msrjJr2MBdsGUIf5xdbVflygemtk55yxk3XmZzCq4WnMfr5uRexoghxiaL/21tbk54TUgL7PQ7hVADoMUET6SQ0AeUfe1HIuxqy0c8g6WQH+VW+cEvxwLJHV8dbWIjAvYMWtIb7RuvJzreu0LcPVrUFRdOBbftSAcyRul1G37F9WyJ9rXe0fq4TDFa0z/znqe+4FPhmmoj/FhJbyXmvqdn7AaoNwO8+6Oi6y2R1bBaz7Jps1a4h1dRxthfabiOO/Y7QAmwMH9Lch1Hd7wdFBgpW0/H8VUcjPhx1dCX+/RaR6VO+hNDIwJkxrodC+OZgOmqka7lg03idM02GOMsD8PLCphPvaksM5Aeq+YV0dl4JfQEP3zX0ntMu/HfgO//9wYBxu4xjV8LwV8pcSxdfw2qCbB2plkM2cOYz1Sl/H7USMPcNWj85xKO99s7nl8yk1/IQQ2xXe4P4V6jjcCvlf48xjkx3+z8eMWeetBtY1cxRe+gTuh9Fgn8EZvppJ+3pyyw4A1n4ZfuGMDwPbr2uuf/P7/cQWHUL7Fj5+2n1WaL8fbHSAalszcsghwPXJa4lIFqgBIO/Kwa27fjwNKzYHPpJ2HlkbPt0nTNVsiww4b2p5wgod54M3Bi49GPevAF9hecNSK7Rfj9nVxH4PdfaoN04Leg+8tbVFbDxkCwb5HsTsTd2Qfcv9nJnQQWvxMVsAJxFHJzGs1GOF/G1gd+HxQ+SiB7HlD3lj67KkQazQvhGx7UXERzE+zDDehzO0DJ+/Hiw6L3TRt/PG1mXW2X4BZicHLj0UGIcxjkVPLLZC/nac+3r3hseLiexlsMV4XCL2OiJbH2wQ2CjMNwc2w9kV2IveP1uwNazUj/gg/WkAeHxMiMX/uOnr0eq4/RLjjCC1Ij8GNQBEZC2pASBr5JMmLbe5bYdTargS+GDaeeRdmP3QJ0z/cdoxJMNKtJHj6/Q+4JTDMLDP43weMyiBFfIvAI+ALQBeAX8d8+U4b7kezjYAy735Q/fhWN8Tk7kRMxJjU4xtGNWwKfggnL6J1Mp9+O+7B7y/B7zVA4eAH4IZxA40YIX8S8CL4AvBngN7Hec1jGLvobDe1yCw9XofRn0DjDrcN8dsW5xtwTZ4c3NhWT9tdpZPmLygnCO8qS5up5Q7nvK9pjcCPo3xad540Tm8+d/RW5/CE6x5cP/A2n7o/2/v3mP9rus7jr8+v0Npi8wFrUxRJ+JcnEAMiZcAAAz4SURBVGKiThPHVLYYweG8spoZNTNe6jkHamCjPQWSnVSn4wCLJJXCTvyDZU7/cHPihXndnGxzRuNQcWZzzqIBFNuuyqWn5ZzfZ3+ciqgtvX17vqe/z+ORnNCkh8/n3dPT9vye5/v5fsvs5pNSVv3BEe70YMNk/gMdrDN6huX9GatXJBk76Pse3Pll6+YL6uT0PR2sBYw4AYBDUtdN31eu2fyqrFz1ySTP7Hse9qPk3XV84zv6HoO21Qs33lGum3lnkncu4baPWXx70Cujur9vXT7o5x/8wv6BF/pZzq/19+/+vc9JJzdpS5I8cvHtQR+Mn1n5516IPvCfstQftzuzcuk+v+q6y+4s1125JalTS7XnsVHOKkk5pIQwXP3KpD786PesN9fJy7u64/1IqRduvKNsnfnHlLyog+UelrL6/CR/1cFawIhz0xAOWb1oelf2zJ2bki/0PQu/4Ko6PnWcf3HKyFhzxkwO51JjjkI50Pn/UVWTMlnfuPHug79rl4YzSe5c2j0794hcO/PUQ3rP2tGd5V3+/9AG5a+7W8zTAIBDIwBwWOpF07tyz9h5ST7T9yw84O11YuryvoeAn6hr1y6k1Ncn2dX3LCOv1kM5/z9CytV1YuOHl3rXOrHp/5K8Zan37dzYwY/x7Xvqxgs72G1PSv3bDtYZXcPdf5+kqxty/k6ZnfnVjtYCRpgAwGGrl1xyb1bPvSrVP+z9qven1nV1YurP+p4Efl4d37QtGbwsye6+Zxlxz+l7gCVTy025a/dlvW0/MfXxpLy3r/07cSj3Aahjr0sX59JrbtoXTjiAxTP79UMdLTfIfOnmsY3ASBMAOCL1DdNzmdz02pTizHkfSu5Ozfl1ctMNfY8CB1InNtycMnh1kvm+ZxlF5borzkhyat9zLI3yiZy0+/w6Pd3v59Lq3euTenOvMxyVcgg38h28rpOtOn3W/QireV9na5X6R6W7e4IAI0oA4IjVpNbxje9IresW7xDNkqj121nIC+rkpk/0PQocTB3f8LEMhi9PssRnthtQm/nu//syv/oV9Q3Tc30PUt8wPZcTV74iyX/2PcsReuK+S/z3q/zllc9O6pkd7LMrq/Z8vIN1Rt+jnvTZJHd0tNqTc92VjR0LAg6XAMBRq5Obbkgde36SbX3PMvJKbkrJWfWCqW/0PQocqvrWS2/KQn47/o7o1qCM+hf6e1PK+jox9fq6fv2yicz1TRfvTJk/J8ktfc9yRIZjB74KYNjVzf/yoeUQbI4Hde3ahSTv73BFNwMEHpIAQCfq5IZbMjZ3VpJP9T3LiJpPzZ9mfOqVzlRyPKoXTn09Y3lGkuuSDPueZyTUkX4CwJdS6nPr+Mb39D3I/tTxy29PnXt+Uj/W9yyHrZT93gegfHDziUle08keLv8/TGMdPg0gf1i2bFnZ4XrAiBEA6ExdN709E1MvTepkkvv6nmd01NtShi+qk1NXHNLzm2GZquumflQnpiZT8/wkX+x7nuNf/XFGL6ZsT3Jh7pp7bh3f9B99D/NQ6uT0PVnzpFek5NIkx8t3uxcO+DPbV5+XZE0He9yeH+z5XAfrNKNOXPK1JF/taLlTMrb7pR2tBYwgAYBO1aTWiU3vTVl4Xmpn/5g1qtaU3JC7B8+q45f+a9/TQFfq5NS/1Ymp56bkxUnxuX2E6sTUeanzpyd1U1K/1vc8R+n7KfWS3Dt2ep2YurZOTx8XYaOuXbtQx6euSMozUvL5vud5CLen1ndkLGfUiam37fc9ameXjn/gePn9W1ZK7e4qgOIYAHBgJ/Q9AKOpjl92a9m8+bdy6qqJJG9P8rC+Zzqu1Pqd1MGF9YKNn+57FDhW6vjUJ5N8smy96hkpwzcmeW2SR/Q8Vhe+m1puTcnXF1+Yj92aEx7+zWOxUZ28/HtJZpLMLD4VoLwkye8nOTvJcr8MeCEpn04d3pCT9tx4PJ8ZrxMb/yvJ2eX6mXOTXJaaF/Q9U5L/SfLh1NyYR53xhX1nzferzP7FmpS8pJNd68Dl/0difvCBjNWZdPEIxuTF5fqrT63jl9zVwVrAiBEAOGb2Pa5pS5m96qYsLFyTlHP7nmn5q3uSck32rHxXvfhiz09fKqV8NMkvH9Uaw3ypm2HaUyc33JLkbWXLlg0Zu/fslPJ7Sc5L8us9j3Ygd6dkW2q2JfveatmWMrwte1Z9u1500a4+hqoTm/43yZYkW8rWzScnq89J6ktS8rtJntjHTPtxT0o+m1o/kbLw0Tp++e19D9Sln0atmbNSsjbJy5KcsUTbzyfli0m9KcPceFg3i10Y/kZSbjzqCWrdue/PM4epXrjxjnLdzExSntzNivNPTXJ0AaDkG6nlg0c9yimnuCJkKZX6lWRwdL9vpd7b0TQsQ6VWR4pZGuXad70wg7Grkzyt71mWqY9nxdgf1zdf8p2+B4HloLznytMylmcn9TlJfjOLQeAJOTbx+t4sfrH8g6RuT8oPU/ODpN6VwWB7hsMfZqzcmRNO/F5908U7j8H+x1TZ+s7Hp5xwdpKzkjwlix/LAz4OriN7k3wrqV9JGXw5w/rlPGruy3Xt9N5jvO+yUq6deVpKOTslz0ypz0rNmUlO7GDpO5LcmpJbksHNGd73uTo5fU8H6wIwwgQAllSZnV2RhZ1vSs2mlHJa3/MsE/+SDKfrxKU39z0ILHdldnZF6o9Oz0J9XAb1V5KyJsPhmpTBqpThL6UOfi4O1PuS8pNHyP0ope5KsiMLZUdK2ZEThjuTue113XRzNy4tWzefnMHKJ6cOHp/kkclwTVJOXfxxOTmpJ+Wnxwgenp+9NHnf00jqXJIdqYPtKdmR5Pspw9uysOLb2X7P95wF/0VldnZF7r/7tIztfVwyeGxqOS2ppyRlZepwdcpg1QPvXIdzKYPdKdmdOrwztdyZUu/IsG6rF1y6o8dfBgDHKQGAXpQbNq/K7lVvSeqGpDy673n6Uf89ydvrxKbP9D0JAAAw+gQAelU2bz4xp656dZI/SRtHA4ZJ/iHDhffUCy77bN/DAAAA7RAAWBZKUnL9zDkZ5s0p9bykrOh7po5tT/I3GQxm61s3fKvvYQAAgPYIACw7ZetVj05ZeH1SXpPkzL7nOXL1/iSfSfK+zD/sI3X9+j0H+z8AAACOFQGAZa3M/vlTMl/WpuTlSZ6elNL3TAcxl9R/Ts3fZc+ej9SLp4+7u4UDAACjSQDguFFmr3lMFvaek9RzUvK81Dym75myeKb/myn5pwzrp3LCns+3eDdxAABg+RMAOG6V9179xMwPz9r3jPAzU/P0JKcc213rbUm5NaV+NbV8MXvmvlAvmt51bPcEAAA4egIAI6Vc/+7Hps79WurgCRmUJ2Q4PD2lPCKpj8zis61PyeKzrFckOTmpNSmLL+BL5lKzMyU7UuvOpHw/Nd/NWNmWZFv27v7vun76x7394gAAAI6CAAAAAAANGPQ9AAAAAHDsCQAAAADQAAEAAAAAGiAAAAAAQAMEAAAAAGiAAAAAAAANEAAAAACgAQIAAAAANEAAAAAAgAYIAAAAANAAAQAAAAAaIAAAAABAAwQAAAAAaIAAAAAAAA0QAAAAAKABAgAAAAA0QAAAAACABggAAAAA0AABAAAAABogAAAAAEADBAAAAABogAAAAAAADRAAAAAAoAECAAAAADRAAAAAAIAGCAAAAADQAAEAAAAAGiAAAAAAQAMEAAAAAGiAAAAAAAANEAAAAACgAQIAAAAANEAAAAAAgAYIAAAAANAAAQAAAAAaIAAAAABAAwQAAAAAaIAAAAAAAA0QAAAAAKABAgAAAAA0QAAAAACABggAAAAA0AABAAAAABogAAAAAEADBAAAAABogAAAAAAADRAAAAAAoAECAAAAADRAAAAAAIAGCAAAAADQAAEAAAAAGiAAAAAAQAMEAAAAAGiAAAAAAAANEAAAAACgAQIAAAAANEAAAAAAgAYIAAAAANAAAQAAAAAaIAAAAABAAwQAAAAAaIAAAAAAAA0QAAAAAKABAgAAAAA0QAAAAACABggAAAAA0AABAAAAABogAAAAAEADBAAAAABogAAAAAAADRAAAAAAoAECAAAAADRAAAAAAIAGCAAAAADQAAEAAAAAGiAAAAAAQAMEAAAAAGiAAAAAAAANEAAAAACgAQIAAAAANEAAAAAAgAYIAAAAANAAAQAAAAAaIAAAAABAAwQAAAAAaIAAAAAAAA0QAAAAAKABAgAAAAA0QAAAAACABggAAAAA0AABAAAAABogAAAAAEADBAAAAABogAAAAAAADRAAAAAAoAECAAAAADRAAAAAAIAGCAAAAADQAAEAAAAAGiAAAAAAQAMEAAAAAGiAAAAAAAANEAAAAACgAQIAAAAANEAAAAAAgAYIAAAAANAAAQAAAAAaIAAAAABAAwQAAAAAaIAAAAAAAA0QAAAAAKAB/w/iRyfuW9D9FwAAAABJRU5ErkJggg==;" vertex="1" parent="1">
          <mxGeometry x="961" y="2160" width="272.62" height="98.25" as="geometry" />
        </mxCell>
        <mxCell id="B7J31swfIntdvlFsxO-T-9" value="" style="sketch=0;points=[[0,0,0],[0.25,0,0],[0.5,0,0],[0.75,0,0],[1,0,0],[0,1,0],[0.25,1,0],[0.5,1,0],[0.75,1,0],[1,1,0],[0,0.25,0],[0,0.5,0],[0,0.75,0],[1,0.25,0],[1,0.5,0],[1,0.75,0]];outlineConnect=0;fontColor=#232F3E;fillColor=#7AA116;strokeColor=#ffffff;dashed=0;verticalLabelPosition=bottom;verticalAlign=top;align=center;html=1;fontSize=12;fontStyle=0;aspect=fixed;shape=mxgraph.aws4.resourceIcon;resIcon=mxgraph.aws4.s3;" vertex="1" parent="1">
          <mxGeometry x="1420" y="2000" width="78" height="78" as="geometry" />
        </mxCell>
        <mxCell id="B7J31swfIntdvlFsxO-T-10" value="" style="shape=image;verticalLabelPosition=bottom;labelBackgroundColor=default;verticalAlign=top;aspect=fixed;imageAspect=0;image=data:image/png,iVBORw0KGgoAAAANSUhEUgAAAbAAAAB1CAMAAAAYwkSrAAAAh1BMVEX///8AAAD4+PjX19enp6ciIiLq6urv7+8ZGRlFRUXc3Ny3t7ezs7Pz8/PMzMzm5uZ+fn6UlJQrKytQUFBmZmZsbGzT09OgoKDh4eEwMDCIiIhhYWFZWVmtra2/v7/Jyck7Ozuampp1dXU5OTkeHh5CQkIQEBCNjY1ycnJUVFRLS0snJycLCwv7lWT1AAAS7UlEQVR4nO1daWPiIBDVqPGMV72PqG21Vfv/f99WDfAGhiPu1rar75uGJMCDYS5IoZAH7WZvsK3sih+1/qKXTnLd+8CNEaXDXZGi0m1/d60esKDT6xc5rMfV767aAybiWY2l64R+L/nu6j2goWyn60zZQzD+KCRzJ10nvEXfXckHJEpeuj5Rf6xkPwVNnZvadjHYvxhC8iEWfwaWhJX9piEuRGmX6o2j76zmAxkIX90GvRi1h3h5tXqbP9W32+2+W24/jOpvQQp8vHMcjBaWRW33NO7cvLp3j45aqforS5lmxUJZsThMH8rjbXFQfW/v+urayljxtXXD2j6wkR0/sxdq2ITiBdvHYnYzVGWv9+xlnp10nbC5YZXvG1IFtM+vsZeuTzw9jOqboCGlmm39Wr3o3Oym68N6qhvV/dJNK36vkMLOsgpNBpSW2qDc6FSTKKnGjdbwSHh8MPb1kCvYG3s5mVG61i1qdsXNOl5usA954B+inHX1B3t1SYPPlSZTZqWsguIu/tra3j1KZbE+lZmrI23xGlueUlZFXh429NdhBOLu1Qwnd7TFq2vnoqP8w89fWeN7RtQk0+ddv568UbrmzuUpUmIx/bo63zNamqNJdyE2aUxl66VBOkKmV6V+VCeN0icak4dI5VDVswFqVKcv7enVsb8bEznHeHXTjihOu3Mx3Xf1YW/0n1jgcQfgLhrFCszllRFHPuDlapdefA5S/TrSJMvV38lyr1fmU0DbYga/CqRJbhGF+RnmVcbRNLBffgq1hmVQLccUi2d6TTJUOK31d4EmXQydZZ2EDYsmwI1IdcNKDh1CTszQG6J3C11n/HbKtGXHuaq4CCOECDGmJsXI12nR5qP4xIqsRNwVGB1Li24cfnXIJs4z/hyEIV+DhqBHBVYwu6PLrEZZ5HnOdaawBBZBLdJWSg6/OS7a09qydRW2EwbW1UtbFVSEKa8FZ3mNlIbAZG7LKRagm8fugGiGvBrnz0FkBOhdhqyVMJBC3aTgIuyFWbxiMimm5vh/yi75F77ONoQvZwz8Z2OUqyk2wiL1d5MUNAjjLC9Du9zrCmQru+CdGLERYvvfGDND9EeHR8FGmJohbVpQI2zHLF6rKdOdz7QSk+zvgXk7BZfQMz1sj8zfvzP1IH41W+KQOxbC1DQdaQU1wirGExuMeXsG9eBnf/Y97inDspitshldbRrXuJDOj0dLb0XROYwthMlOT/WCHsISNTXrpRGdHq84cIR/yu3soHnhxS2lJNnQINyvjLEdigzs/imesJX4a2YUdBNWlj14XJ5/06RSWMqEJewkbELuZgwULUdr73rYzwS/Fcgu3XnChCLdj4yCLsJWKglglhFR1TxK0mAT/zt9ncQFcGQ3V5TJ43+fOQbWE6RQ2E0xlrAS034/YRO1puzBktDySmvlyyAQiqTL/7jCG6cW64RKTcfTfiaU9lRLoB3WvVosYWL0YxTfR1ikhspRW/xTGjGrn71Vm+yXy0h8wtusm5eIo+C3uRXR3C3A0LaG41nChOmzZApaCGt+yMcwWcGbIsGgowaFQ08gE8yh6aIPjc8QQkSdOF/oM55M8obdPt8RWBKE/gjZq9m0Z44wodMfq0xBlrAReiO2jL830dyBM1lTR1+gfdB1NDrBGQyzu9lqXtDKZmdnOc/G1XTWDCBh0upKk/K9xXZhR7yjKa6velln1Lp+Nw5IwfXnzx3bDgKOMLEqPHMFGcI6ukG0YPy9mnlWydRH60jS9CfnpMB4knIng7Pm3JKVZiDO3Xt6o6Vus3M3wKtPwl0zNHZL8w4CUJlOZipoIDa1gyNMiNIVV9AgLOpJaagW0BnnveccIAc7E7g22dLmMuBiJ9XOSEXLu0yuwycGdsEVjRkHBBOipYS1jAB93b1vWHXJ7jTIkQ1LxIgjTNhOVa6gRthR+aEq5URx0l+aTCQ9/aQjpwMQ+XW2msbLJLeEsBHnyyrubEKrxJqzRdNAAsImBTYo7ppkDVVsfv4DXmsxxRjChCipR1xBLrxy6ZTTcIWUtwMjQCZG4Niu1aHR7PPrRkCudOsgYUR/QfBTl3MXiUfRkjjDLButHA4zEIGp/uIafwtDmOipLlvQQthWCIuJEj0DxihuawuDXShhp3nPI8BEV/FIIGxtP7iHCxe8WUsXdYUbCHuy3WG1XCIlcTIFDz3B/BLLECaUxBlbkCcMPQwrpbRxvUEM3amtLSTMfLSXEu9k+idyH68kYFohtnQfrlHGoSUM1rZaEyPsAtDfeFPMQdgbW5AjTOcFqGQkeIQD2J6lBmPNnUd0fiY8UkjZQMIMC88hD80bQgizCkUwIMUow2gmq0A7COuxBU3ChqZYS5Q4XzOUNGBttcqLgAYDQB6JXPJQwipUo9UcztNBdzbUgqjQk0GErfk6Q/KNzPaMwKJl13eGMPFXmEjkCDkVV26WObOUKZW9btHrO1CxgCN1QIwJS8wkbN5rJ0nSSbtUZaSLNeqHtdnFKxJVx33+BpOw4+J9qGeh8A7TjSqgdB8wZtgMJYfSEUTYq7ULVaU/eqZVpiprSRKAVek1IIkNpHA9+0snbK14r5aJgYHPx+wGTPgivholU3TCFqtzW+MlMeNYLTcC77yas5jzxrWbIUy4S4ZsQW/EWQA9fEwWjuoYfviBbvISsGkCOq6fdadG2DuZyh2cMbC8o5tL0+CBSkUAJQySaSforXvixAgsV3P4Gwx8jmfOcM4aSjeX/BVhn1U2xJocsXPubpwyB7YABbRebNeghOk6VxVDq6o/4bWGqgN2luwaQlgfhX8DXs+GwuFxuEiDzsONVI4wYSqFeDo8hO2V2TXU5aKUmewSBeP5yfoOBVzyMj2GEGaS3oarSpdVK9jOmBXgqZUziRBGG4L2C7OMV2EhJRfgNkY/4AgTC3iLK5iPsC5Wu0e7IBY+SHYGAWEhgX/U6zMZSwhjlNEu8wboDsZrpTQbOV+RMG01jlTEiRuTcCcVfaA/McKHI0zYcwOuoKpVGGGFSFWgRpcyySWn2uecYTgus95Bwoxto5/oQIeKoaTq2mfuUIbuWggr6HYj4w9GBMM+qBzUpwGU7Ey1gyNskqlQHziR42wG72TidSBhn9JcLWd7lMoyR5lTFGExCSHMM8NYqQuOTdGhSlPgjCB4iegaIMwYFDDmTP8B+H11dw/ISrMWbMRZWKGkI+Xgm2ZLZDBhn0NTDici/sQU48LEIErrzGUdqA2baxi/ORc8Q5mgn6hbRoXIAExjMQKAMKNzU8c1tLd0BzSMVdN1xxIm7qgQ5UZpNZdstRyEFaKx6Aoi/nbcnxd4lCUdoCXuTC2Rk4iE5GxNUsbfxxMDiIAKBoAwQ+yVzOIKZn0lnD4DlrBYNJWuhuDVPe2NzUOYIoA0S8xaJsiR03B222G8cQ5uoCyOquWtOjAz32vYkzAgDMKgeaZDAxwlRmoEn5col0tt6INU3lxal5sw4hcU1WZmAMq4ANcU1ExIXSDMEkRUrvFs+0HARjStxlqKgK0JBmFghJkKCcZj9Ws8YXJS6roSqHy7c3P/jjAhGF4ZTwBULGAzLnQA40u0eI9Bgb5oeP4PKAgIDfpKwkB94U4EgqChXnVLbr1sipGWrx3Z9peEiUgxU2nw9rlSprQHQWk/YRDnuRAWtHXwDGEhXUkYyN71pqdjA4TpAtNCmDp71PRnrdBL9peECRnEeAJA6X6xvsSsr5qPQJglg3ujbrqsezcjzBqdNqFZd7b9YWoImIxhRpHHW+8jTLyGCYfDIPzwah2oLYjCVxAWLhLFwL+OsIn5QCu0ZBzrllk12JijvmBHrCUelm1x9hHG6o7ZE6Bm3gRs6GnphPATZohEpYXUKk7U/m4N8yQhEGjHv1oJA0/nlBn/cGQRc0xAVcgzH2GivVyPQkTJkfpxBqqU8pVAmIVwQ+lQ47CXVJ1gXFPhhCXB24BPoDqy/RQB8J0U3xnTdaW0gpk2Bzdm711BGOrYng/v4IiV7QPCLIeAq3lZuTRQSVbe1DZxFWHWpDsWfPbaCdr7SGYzl9YItg9avrAv4m9EIol/uB32HdAo1ZY2mvnLIFEhsSzCqHrSN6dlY9WbwwnTjpf0oMaGuU7QmkPTdPtMn8LZYEexlI1IzqyPMOcuMdRGnaYY5varyQSE7dnEEVj6Z0ZvBH4n5hrCOmYCtBNsmOsE+jpj3i6YXm0oqXI+XSXWUnt9hIlZzHoLMfGx5thsQoKIyv2J3nq2+03/K2QQ+7YxmO8OJizobH8AMcXshJXNO7tMv6ZqAZ3FYzl2Kq08ng5+c0qMUXx7bmIH813A0EfCuIxszCgTna3GH2/7jUtaTa8hLPCkGP7JdsI4I1LsdyXt3jD5f934Iqc8hAkXmGWJ2uAjbfn1CdkUAxorErZmRgQmjIr/wIvH6jnF4mFDQhhXEAb2ynHUtgJoRZ3JTljW3Jp2QixjdsX6LoDDqe4hhIlZbNHiEpI/yGsOVcIXzkOSImBOMTY/CnLbuQ1am/OVOSwqVxAG2q9rFxX4AlADshMmOj/SRC6XF0o2nmfHcYQQJkaRTaWgSWQLzriglcOVjmZNGQswrrZqNsHYM2MyKlDVFTP5CsLgvS4PDsbQYZZYCRPl35n9rqZ8AfEiRk0AYfLl1lprOoyuCXS0uU1Gg5aXqHUOtgn8a2h96qZMDJNZsJOfMNzvYm33CaD8QzKO19Nxycqgu031naAr5V1WBycGKB2iSnYrNdH2QR7LsIKU9N1mNPdQz/zFN8fEa4h6Mw4BqmStQAfisqYCCQOzxx02QuGhKmIlTPi/s7Wenl1Pduvh+RwgePwzTK6+Dj+GcVDM6+E5LTVKo/LAODZMs7aM3Pr5JY26kDRmxBIiRjLxy06XcvyVyEZuOV1zEwZxhb5nXzwssmqGeGeYGP36ftdhtpSdzokVzSMSyTvD5CcHnF4F7+YfiaMm9JjdK9P526Y70NVqOtCpOTN9H6eNdjqjIkYpC7kJ26g/fZ/GAN+06iKv0qGstol2WMA5LxS+GKYdPOqdYbI+bhuVsQdZ1PQOC91upAtkv+MIFMjchME66Mt8YLeoewnDCPaIqvjHtOPYH+sjTDa1z1rNCmGM7QzlNZAw00Tz+tJBlOUlDIww20YrBVjupOFjJ4yN3tvSipgIjIcw9WKvE6gd4HtjvIVhhNWY7YiOr+SegKI3L2GgnNq/I6r32QniPzthQgWjVETchu0aEx25rFBWwtR7Aw7WTryhe67xQNjQKuYMQXq+0xV5PpI7chKG53/5TzfCLepiobUTJiaTbj8a594U3xiDtnXRgW2EudrJwa16HFhnPwmvcN9M+MTWoqjpJ5MraJtwchIGEorfZUUBNobw4dgJE9LW/EJpm6hZA8Zcb4vUbJ4w/IBV4PFr8cz6/fVDk18MaDyMpcB+/od+PEWGvp5/lZMwmLohRztimkQ2IR0BTDEfzeELWTjc16fAt8gSlkJnhB+FHY/JNzQzfMxXtrVbC2C2jcNtFi41zTxq6pMu8wT+fIShHyXkSLkI9J/MlHAQJhYxLrCRZeFwX5+KcCwrPiRhI1yQvIdqE4ze6kSR6M+XDm+cEXFuD2FN6Hd9WnXUnr2AunOcc+e5rV7qGaZGVapTce0lm5hLWXod9mGE8VrcsM2stlKtL6ATJl0j7ApRGliOACOiS3kt5QYLvByyGZYiGaW95+Fi/t4tp57Vj0kRiFbN3vti/rxJAz/EFK+Ws+FiPx+H3vCtEDIh7AMpZ5ToiW0wObkwa36+8sCb0/HfQVqsnsPvJHQFEqc9Yw58cTfeH2FV6dgIUr31j5dS9dEwbT4Csyauxv0RpqyGSoBK06LSsE7Vx0j3VgwD05Kuxx0SplITvduMRzS931AftTDJ+gafBL5HwsCB5JxjelaH+fFSkk3e/2ppeMY9ElbYyDa/OFxfmyJB3VSBMZv8+UYfhr1LwjDZzaYrtiA1u2j5eKlwCLw2g/SXf4L7JCwCQ3fKUaF/LIw9W1jmbPpDCv8O90lYYYJBy5cW1e0mqeage+e931LdvKW/4E4JKzRIAPZ1Xi51qklU7UzS2V4LEZpHtl0gT04LCSn8M9wrYYWJ7iXfTdf1qRkF7lsDBtJoDji/4d/hbgkrJEH7mbgw5gXSA5LPN/+3uF/CQk6IWdgdFypkdDsN8QT92yt3hdh9ToFlZ/oZiuwbfxs7GkvcwK/y47ByJML0HWFElSbkP23jgX+K0fuHjbGjbQhPIGP2y729D+iIW0Puk1InMGc/aF/Tukex9ANQHS27w8VhWz8sZilJn5pNNP9wdYzs/raPU/6fiElm0VOvLTlrjKkt8Ds/O///oarngvXnw08YCWm/7/vK/y1CztPa3dTD8YAbGy9fi7xf1X3gSzFxTzK7i/GB70JqPyqksgk4EvuBWyNa8pQde6FfDH/g1hjN+hpbr8M03zfkH7gx4nQ527+8Fj9e1/Ne+vBE3Qh/AKtaAIVCRiWQAAAAAElFTkSuQmCC;" vertex="1" parent="1">
          <mxGeometry x="1392.7900000000002" y="2350" width="132.42" height="35.86" as="geometry" />
        </mxCell>
        <mxCell id="B7J31swfIntdvlFsxO-T-11" value="" style="endArrow=classic;startArrow=classic;html=1;rounded=0;" edge="1" parent="1" target="B7J31swfIntdvlFsxO-T-8">
          <mxGeometry width="50" height="50" relative="1" as="geometry">
            <mxPoint x="690" y="2207" as="sourcePoint" />
            <mxPoint x="500" y="2207" as="targetPoint" />
          </mxGeometry>
        </mxCell>
        <mxCell id="B7J31swfIntdvlFsxO-T-12" value="" style="endArrow=classic;startArrow=classic;html=1;rounded=0;exitX=1;exitY=0.5;exitDx=0;exitDy=0;exitPerimeter=0;entryX=0.464;entryY=-0.044;entryDx=0;entryDy=0;entryPerimeter=0;" edge="1" parent="1" source="B7J31swfIntdvlFsxO-T-2" target="B7J31swfIntdvlFsxO-T-8">
          <mxGeometry width="50" height="50" relative="1" as="geometry">
            <mxPoint x="910" y="2140" as="sourcePoint" />
            <mxPoint x="960" y="2090" as="targetPoint" />
            <Array as="points">
              <mxPoint x="1087" y="2030" />
            </Array>
          </mxGeometry>
        </mxCell>
        <mxCell id="B7J31swfIntdvlFsxO-T-13" value="" style="endArrow=classic;startArrow=classic;html=1;rounded=0;exitX=1;exitY=0.5;exitDx=0;exitDy=0;exitPerimeter=0;" edge="1" parent="1" target="B7J31swfIntdvlFsxO-T-8" source="B7J31swfIntdvlFsxO-T-4">
          <mxGeometry width="50" height="50" relative="1" as="geometry">
            <mxPoint x="640" y="2400" as="sourcePoint" />
            <mxPoint x="960" y="2090" as="targetPoint" />
            <Array as="points">
              <mxPoint x="1097" y="2400" />
            </Array>
          </mxGeometry>
        </mxCell>
        <mxCell id="B7J31swfIntdvlFsxO-T-15" value="" style="endArrow=classic;html=1;rounded=0;exitX=0.921;exitY=1.005;exitDx=0;exitDy=0;exitPerimeter=0;" edge="1" parent="1" source="B7J31swfIntdvlFsxO-T-8">
          <mxGeometry width="50" height="50" relative="1" as="geometry">
            <mxPoint x="910" y="2140" as="sourcePoint" />
            <mxPoint x="1390" y="2370" as="targetPoint" />
            <Array as="points">
              <mxPoint x="1210" y="2370" />
            </Array>
          </mxGeometry>
        </mxCell>
        <mxCell id="B7J31swfIntdvlFsxO-T-16" value="" style="endArrow=classic;startArrow=classic;html=1;rounded=0;" edge="1" parent="1">
          <mxGeometry width="50" height="50" relative="1" as="geometry">
            <mxPoint x="1240" y="2200" as="sourcePoint" />
            <mxPoint x="1410" y="2200" as="targetPoint" />
          </mxGeometry>
        </mxCell>
        <mxCell id="B7J31swfIntdvlFsxO-T-17" value="&lt;font style=&quot;font-size: 14px;&quot;&gt;POST /auth/token&lt;/font&gt;" style="text;html=1;align=center;verticalAlign=middle;whiteSpace=wrap;rounded=0;" vertex="1" parent="1">
          <mxGeometry x="770" y="1990" width="150" height="30" as="geometry" />
        </mxCell>
        <mxCell id="B7J31swfIntdvlFsxO-T-18" value="&lt;font style=&quot;font-size: 14px;&quot;&gt;POST /users/&lt;/font&gt;" style="text;html=1;align=center;verticalAlign=middle;whiteSpace=wrap;rounded=0;" vertex="1" parent="1">
          <mxGeometry x="760" y="2170" width="160" height="30" as="geometry" />
        </mxCell>
        <mxCell id="B7J31swfIntdvlFsxO-T-19" value="&lt;font style=&quot;font-size: 14px;&quot;&gt;POST /chat/{chat_id}/qa&lt;/font&gt;" style="text;html=1;align=center;verticalAlign=middle;whiteSpace=wrap;rounded=0;" vertex="1" parent="1">
          <mxGeometry x="765" y="2360" width="160" height="30" as="geometry" />
        </mxCell>
        <mxCell id="B7J31swfIntdvlFsxO-T-20" value="&lt;b&gt;&lt;font style=&quot;font-size: 14px;&quot;&gt;Amazon S3 Bucket&lt;/font&gt;&lt;/b&gt;" style="text;html=1;align=center;verticalAlign=middle;whiteSpace=wrap;rounded=0;" vertex="1" parent="1">
          <mxGeometry x="1374" y="2100" width="150" height="30" as="geometry" />
        </mxCell>
        <mxCell id="B7J31swfIntdvlFsxO-T-21" value="" style="sketch=0;outlineConnect=0;fontColor=#232F3E;gradientColor=none;fillColor=#C925D1;strokeColor=none;dashed=0;verticalLabelPosition=bottom;verticalAlign=top;align=center;html=1;fontSize=12;fontStyle=0;aspect=fixed;pointerEvents=1;shape=mxgraph.aws4.rds_postgresql_instance;" vertex="1" parent="1">
          <mxGeometry x="1420" y="2155.29" width="78" height="78" as="geometry" />
        </mxCell>
        <mxCell id="B7J31swfIntdvlFsxO-T-22" value="&lt;b&gt;&lt;font style=&quot;font-size: 14px;&quot;&gt;Postgre SQL&lt;/font&gt;&lt;/b&gt;" style="text;html=1;align=center;verticalAlign=middle;whiteSpace=wrap;rounded=0;" vertex="1" parent="1">
          <mxGeometry x="1374" y="2258.25" width="150" height="30" as="geometry" />
        </mxCell>
        <mxCell id="B7J31swfIntdvlFsxO-T-23" style="edgeStyle=orthogonalEdgeStyle;rounded=0;orthogonalLoop=1;jettySize=auto;html=1;exitX=0.75;exitY=0;exitDx=0;exitDy=0;entryX=0;entryY=0.25;entryDx=0;entryDy=0;entryPerimeter=0;" edge="1" parent="1" source="B7J31swfIntdvlFsxO-T-8" target="B7J31swfIntdvlFsxO-T-9">
          <mxGeometry relative="1" as="geometry" />
        </mxCell>
        <mxCell id="B7J31swfIntdvlFsxO-T-25" value="User can Login the page" style="text;html=1;align=center;verticalAlign=middle;whiteSpace=wrap;rounded=0;" vertex="1" parent="1">
          <mxGeometry x="245" y="2000" width="180" height="30" as="geometry" />
        </mxCell>
        <mxCell id="B7J31swfIntdvlFsxO-T-26" value="User can Register the page" style="text;html=1;align=center;verticalAlign=middle;whiteSpace=wrap;rounded=0;" vertex="1" parent="1">
          <mxGeometry x="320" y="2170" width="180" height="30" as="geometry" />
        </mxCell>
        <mxCell id="B7J31swfIntdvlFsxO-T-28" value="&lt;span style=&quot;font-size: 14px; text-wrap: wrap;&quot;&gt;POST /chat_completions&lt;/span&gt;" style="text;html=1;align=center;verticalAlign=middle;resizable=0;points=[];autosize=1;strokeColor=none;fillColor=none;" vertex="1" parent="1">
          <mxGeometry x="1194" y="2330" width="180" height="30" as="geometry" />
        </mxCell>
        <mxCell id="B7J31swfIntdvlFsxO-T-29" value="S3 Operations" style="text;html=1;align=center;verticalAlign=middle;resizable=0;points=[];autosize=1;strokeColor=none;fillColor=none;" vertex="1" parent="1">
          <mxGeometry x="1225" y="1980" width="100" height="30" as="geometry" />
        </mxCell>
        <mxCell id="B7J31swfIntdvlFsxO-T-30" value="&lt;span style=&quot;color: rgb(31, 35, 40); text-align: start; background-color: rgb(255, 255, 255);&quot;&gt;Users can interact with an LLM to ask questions about the content of uploaded documents.&lt;/span&gt;" style="text;html=1;align=center;verticalAlign=middle;whiteSpace=wrap;rounded=0;" vertex="1" parent="1">
          <mxGeometry x="180" y="2370" width="340" height="30" as="geometry" />
        </mxCell>
      </root>
    </mxGraphModel>
  </diagram>
</mxfile>
